<?xml version="1.0" encoding="UTF-8" standalone="no"?>
<svg
   xmlns:dc="http://purl.org/dc/elements/1.1/"
   xmlns:cc="http://creativecommons.org/ns#"
   xmlns:rdf="http://www.w3.org/1999/02/22-rdf-syntax-ns#"
   xmlns:svg="http://www.w3.org/2000/svg"
   xmlns="http://www.w3.org/2000/svg"
   xmlns:xlink="http://www.w3.org/1999/xlink"
   xmlns:sodipodi="http://sodipodi.sourceforge.net/DTD/sodipodi-0.dtd"
   xmlns:inkscape="http://www.inkscape.org/namespaces/inkscape"
   version="1.1"
   id="Gopher"
   x="0px"
   y="0px"
   viewBox="0 0 324.99998 325"
   enable-background="new 0 0 215.6 281.6"
   xml:space="preserve"
   sodipodi:docname="gopher.svg"
   inkscape:export-xdpi="96"
   inkscape:export-ydpi="96"
   width="325"
   height="325"
   inkscape:version="0.92.2 (5c3e80d, 2017-08-06)"><metadata
     id="metadata47"><rdf:RDF><cc:Work
         rdf:about=""><dc:format>image/svg+xml</dc:format><dc:type
           rdf:resource="http://purl.org/dc/dcmitype/StillImage" /><dc:title></dc:title></cc:Work></rdf:RDF></metadata><defs
     id="defs45"><circle
       r="75"
       cy="75"
       cx="75"
       id="SVGID_37_" /><circle
       r="7.6999998"
       cy="33.200001"
       cx="51.200001"
       id="SVGID_39_" /></defs><sodipodi:namedview
     pagecolor="#ffffff"
     bordercolor="#666666"
     borderopacity="1"
     objecttolerance="10"
     gridtolerance="10"
     guidetolerance="10"
     inkscape:pageopacity="0"
     inkscape:pageshadow="2"
     inkscape:window-width="2560"
     inkscape:window-height="1436"
     id="namedview43"
     showgrid="false"
     inkscape:zoom="3.1069999"
     inkscape:cx="-32.06502"
     inkscape:cy="171.81546"
     inkscape:window-x="0"
     inkscape:window-y="54"
     inkscape:window-maximized="1"
     inkscape:current-layer="Gopher"
     fit-margin-top="0"
     fit-margin-left="0"
     fit-margin-right="0"
     fit-margin-bottom="0" /><g
     id="g40"
     transform="translate(-114.08003,52.199748)"><g
       id="attheedge"
       transform="matrix(2.1666667,0,0,2.1666667,-116.68922,-53.809023)"><g
         id="g5237"
         transform="translate(22.876384,-1.9311233)"><g
           id="g5274"
           transform="translate(85.117974,0.59419179)"><circle
             r="75"
             cy="77.079674"
             cx="73.514526"
             id="Background_27_"
             style="fill:#18345d" /><g
             id="g4891"
             transform="translate(-45.455673,13.517863)"><circle
               style="fill:#f9a11d"
               cx="75"
               cy="75"
               r="24.299999"
               id="circle4887" /><circle
               style="fill:#ffc81a"
               cx="75"
               cy="75"
               r="21.6"
               id="circle4889" /></g><g
             id="g4929"
             transform="translate(-46.9,14)"><path
               style="fill:#e2a926"
               inkscape:connector-curvature="0"
               d="m 74.3,71.7 c -0.4,0 -0.9,0 -1.4,0.4 -0.6,0.5 -1.2,0.3 -1.6,-0.4 -0.2,-0.4 -0.4,-0.5 -0.8,-0.4 -1,0.1 -1.4,-0.5 -1,-1.3 0.2,-0.4 0.1,-0.5 -0.3,-0.8 -0.6,-0.3 -1,-0.8 -1.8,-0.6 -0.2,0 -0.4,-0.1 -0.2,-0.3 0.4,-0.4 0.3,-0.9 0.2,-1.4 0,-0.4 0.4,-0.6 0.7,-0.8 1,-0.4 1.5,-1.1 1.3,-2.2 -0.2,-1.3 0.6,-1.9 1.4,-2.6 0.2,-0.2 0.4,-0.3 0.5,-0.5 0.8,-2.1 2.7,-2.8 4.6,-3.5 0.6,-0.2 1.3,-0.6 2,-0.2 0.2,0.1 0.5,0.1 0.5,0.4 0,0.2 -0.3,0.3 -0.4,0.4 -0.3,0.1 -0.6,0.2 -1,0.4 -0.6,0.2 -1.3,0.3 -1.4,1.2 0,0.1 -0.1,0.2 -0.2,0.2 -1,0.4 -0.9,1.3 -1.2,2.1 -0.2,0.6 0,1 0.7,1 0.5,0 1,-0.1 1.4,0.1 0.8,0.3 0.8,0.8 0.2,1.3 -0.9,0.8 -2,1.3 -3.1,1.6 -0.3,0.1 -0.5,0.2 -0.8,0.3 -0.2,0.1 -0.6,0.2 -0.5,0.6 0.1,0.3 0.4,0.1 0.6,0.2 0.5,0.1 0.5,0.3 0.5,0.7 -0.2,1 0.1,1.4 1,1.7 0.5,0.2 1.1,0.3 1.7,0.4 0.5,0.1 0.5,0.4 0.4,0.8 -0.1,0.9 -0.5,1.2 -2,1.2 z"
               id="path4909" /><path
               style="fill:#f99b21"
               inkscape:connector-curvature="0"
               d="M 79.4,81.8 C 78.8,81.4 78.2,81.7 77.6,81.7 76.7,81.8 76,81.5 75.3,80.9 74.6,80.3 73.9,79.7 73.1,79.3 72.6,79.1 72.3,78.6 72.2,78.1 72.1,77.7 72,77.2 71.6,76.9 c -0.5,-0.3 -0.2,-0.7 0,-1 0.3,-0.3 0.6,-0.3 1,0 1.2,0.9 2.7,1.8 4.2,1.6 2.3,-0.4 4.8,-0.3 6.7,-1.9 0.4,-0.3 0.8,-0.6 1,-1 0.2,-0.4 0.5,-0.8 0.8,-1.1 0.4,-0.5 0.9,-0.9 1.5,-0.5 0.7,0.5 0.3,1.1 0,1.6 -0.2,0.4 -0.5,0.6 -0.7,0.9 -0.4,0.6 -1.4,0.9 -1,2 0.1,0.3 -0.5,0.7 -0.9,1 -0.3,0.3 -0.5,0.6 -0.5,1 0,0.9 -0.5,1.5 -1.5,1.8 -0.8,0.2 -1.9,-0.3 -2.8,0.5 z"
               id="path4911" /><path
               style="fill:#e2a926"
               inkscape:connector-curvature="0"
               d="m 72.6,94.1 c -1.2,-0.1 -2.1,-0.2 -3.1,-0.3 -0.4,-0.1 -0.8,-0.3 -1.1,-0.6 -0.9,-0.9 -1.9,-1.8 -2.7,-2.8 -0.4,-0.6 -0.4,-1 0.3,-1.2 0.3,-0.1 0.3,-0.4 0.2,-0.6 -0.2,-1.3 -1,-2.2 -1.7,-3.2 -0.5,-0.6 -1,-1.3 -0.6,-2.3 0.3,0.2 0.5,0.6 0.9,0.4 0.3,-0.2 0.1,-0.6 0.2,-0.9 C 65.1,81.7 64.9,81 64.1,80.5 64,80.4 63.9,80.3 63.8,80.2 63.6,80 63.3,79.7 63.6,79.4 c 0.2,-0.3 0.5,0.1 0.8,0.2 0.3,0.2 0.6,0.4 0.9,0.6 0.5,0.3 0.8,0.1 0.7,-0.4 0,-0.6 0.2,-1.2 0.2,-1.9 0,-0.3 0.1,-0.6 0.5,-0.6 0.4,0 0.3,0.4 0.3,0.6 0,0.8 0.3,1.4 0.6,2.2 0.4,1 0.5,2.2 0.2,3.4 -0.1,0.3 -0.2,0.6 -0.2,0.9 -0.2,0.9 0,1.1 0.9,1 0.4,0 0.9,-0.1 0.6,0.6 -0.1,0.3 0,0.4 0.3,0.4 0.6,0.2 0.5,0.5 0.2,0.9 -0.3,0.3 -0.6,0.5 -0.8,0.9 -0.2,0.3 -0.3,0.7 0.1,0.9 0.9,0.3 0.6,1 0.5,1.5 -0.2,1.4 0.2,2.2 1.6,2.5 0.5,0.1 1,0.3 1.6,1 z"
               id="path4913" /><path
               style="fill:#e2a926"
               inkscape:connector-curvature="0"
               d="m 92.5,67.3 c 1.3,1 1.8,2.3 2,3.8 0,0.3 -0.1,0.7 0.2,0.9 0.7,0.6 0.5,1.2 0.1,1.8 -0.2,0.5 -0.2,1 -0.1,1.5 0,0.3 0.2,0.6 0.6,0.4 0.5,-0.3 0.5,0 0.6,0.3 0.4,1.1 -0.2,2 -0.5,3 -0.3,0.8 -0.7,1.6 -1,2.4 -0.2,0.5 -1,0.6 -1,1.4 0,0.4 -0.2,0.7 -0.2,1.1 0.1,1.5 -1.2,1.7 -2.1,2.3 -0.3,0.2 -0.4,-0.1 -0.3,-0.4 0.1,-0.5 0.3,-1 0.6,-1.4 0.4,-0.7 0.6,-1.4 0.1,-2.2 -0.4,-0.6 -0.4,-1.2 0.2,-1.8 0.7,-0.7 0.8,-1.6 0.5,-2.6 -0.1,-0.2 -0.1,-0.4 0,-0.7 0.5,-1.1 0.6,-2.3 0.6,-3.4 0,-1 -0.1,-2 0.3,-3.1 0.2,-0.6 0.2,-1.5 -0.2,-2.2 -0.4,-0.2 -0.6,-0.6 -0.4,-1.1 z"
               id="path4915" /><path
               style="fill:#e2a926"
               inkscape:connector-curvature="0"
               d="m 81.4,58 c 0.5,-0.2 0.8,-0.1 1.2,0.1 0.7,0.4 1.4,0.8 2.2,1.2 0.3,0.2 0.6,0.4 0.4,0.7 -0.3,0.8 0.2,1 0.7,1.1 1.1,0.4 2.1,0.9 2.7,1.9 0.3,0.5 0.1,0.6 -0.3,0.7 -0.5,0.1 -1,0.3 -1.6,0.4 -1.3,0.2 -1.8,0.8 -1.7,2.1 0,0.5 -0.1,0.7 -0.5,1 -0.4,0.3 -0.9,0.4 -1.3,0.7 -0.4,0.3 -0.7,-0.1 -0.7,-0.4 0,-0.4 -0.2,-0.8 -0.5,-1 -0.5,-0.4 -0.4,-0.7 0.1,-1.1 0.6,-0.5 0.6,-0.8 -0.1,-1.2 -0.2,-0.2 -0.5,-0.3 -0.7,-0.5 -0.8,-0.5 -0.9,-1.1 0,-1.6 0.7,-0.4 1.1,-0.7 0.5,-1.5 -0.1,-0.1 -0.1,-0.4 0,-0.5 0.3,-0.7 0.4,-1.4 -0.4,-2.1 z"
               id="path4917" /><path
               style="fill:#e2a926"
               inkscape:connector-curvature="0"
               d="m 77.7,91.9 c -1,-0.2 -1.8,-0.5 -2.5,-1 -0.1,-0.1 -0.2,-0.2 -0.2,-0.3 0.5,-0.9 -0.4,-1 -0.8,-1.4 -0.7,-0.6 -1.1,-1.5 -1.6,-2.2 -0.2,-0.2 -0.2,-0.5 0,-0.7 0.2,-0.2 0.4,-0.1 0.6,0 1,0.3 2.1,0.8 2.9,1.3 0.7,0.4 1.4,0.7 2.1,1.1 0.6,0.3 1.2,0.4 1.7,-0.1 0.4,-0.4 1,-0.7 1.6,-0.2 1,0.7 1.8,0.3 2.6,-0.3 0.8,-0.5 1.6,-1.2 2.6,-1.4 0.2,-0.1 0.5,-0.2 0.6,0 0.2,0.2 -0.1,0.4 -0.3,0.5 -0.5,0.4 -0.9,0.8 -1.4,1.1 -0.4,0.3 -0.7,0.6 -0.7,1 -0.1,1.1 -0.9,1.2 -1.7,1.3 -0.5,0.1 -1,0.1 -1.4,0.3 -1.3,0.9 -2.8,0.4 -4.1,1 z"
               id="path4919" /><path
               style="fill:#f99b21"
               inkscape:connector-curvature="0"
               d="m 55.8,75.8 c 0.6,0.2 0.5,0.7 0.6,1 0.1,0.2 0.1,0.4 0.4,0.4 0.3,0 0.3,-0.2 0.3,-0.4 0.2,-0.5 0.2,-1 0.1,-1.5 -0.1,-0.8 -0.3,-1.5 0.7,-2 0.4,-0.2 0.4,-0.7 0.8,-1 0.1,-0.1 0.2,-0.2 0.4,-0.2 0.2,0.1 0.2,0.2 0.2,0.4 0,0.4 0.1,0.8 0,1.1 -0.5,1.8 -0.6,3.7 -1.1,5.4 -0.3,1.2 0.5,2.7 1.5,3.2 0.2,0.1 0.3,0.2 0.3,0.4 0,0.8 0.5,1.3 1.2,1.8 0.6,0.4 1,1 1.2,1.7 0.1,0.4 -0.1,0.6 -0.3,0.8 -0.2,0.1 -0.6,0.1 -0.7,-0.1 -0.6,-1 -1.8,-1.4 -2.5,-2.3 -2.1,-2.7 -3.3,-5.5 -3.1,-8.7 z"
               id="path4921" /><path
               style="fill:#e2a926"
               inkscape:connector-curvature="0"
               d="m 60.5,69.5 c 0.3,-0.6 -0.1,-0.8 -0.4,-1 -0.5,-0.3 -0.9,-0.7 -0.6,-1.4 0.1,-0.3 -0.1,-0.5 -0.4,-0.7 -0.6,-0.3 -0.7,-0.8 -0.1,-1.2 0.5,-0.4 0.9,-0.8 0.4,-1.5 -0.1,-0.2 -0.1,-0.5 0.3,-0.4 0.6,0.2 0.9,-0.2 1.2,-0.6 0.1,-0.1 0.1,-0.2 0.1,-0.2 0.3,-0.3 0.6,-1 1,-0.8 0.4,0.2 -0.1,0.7 -0.2,1.1 0,0.1 0,0.3 0,0.4 0.9,-0.3 0.5,1.2 1.4,1.1 0.3,0 0.5,0.4 0.4,0.7 -0.1,0.4 -0.4,0.4 -0.7,0.4 -1,-0.1 -1.4,0.5 -1,1.4 0.4,0.8 0.5,1.4 -0.3,1.9 -0.2,0.1 -0.2,0.3 -0.1,0.5 0.2,0.6 0,0.9 -0.5,0.9 -0.7,0.2 -0.3,-0.4 -0.5,-0.6 z"
               id="path4923" /><path
               style="fill:#f99b21"
               inkscape:connector-curvature="0"
               d="m 68.9,58 c -0.1,0.7 -0.2,1.4 -1,1.7 -0.4,0.2 -0.6,0.6 -0.6,1 0,0.9 -0.8,1.2 -1.3,1.7 -0.1,0.1 -0.2,0.1 -0.3,0 -0.1,-0.2 -0.3,-0.4 -0.2,-0.7 0.3,-0.5 0.4,-0.9 -0.2,-1.2 -0.3,-0.1 -0.1,-0.4 0.1,-0.4 0.7,-0.3 1.3,-0.7 1.5,-1.5 0.1,-0.3 0.4,-0.4 0.8,-0.4 0.4,-0.1 0.8,-0.2 1.2,-0.2 z"
               id="path4925" /><path
               style="fill:#e2a926"
               inkscape:connector-curvature="0"
               d="m 88.4,82.3 c 0.1,1.1 -0.6,2 -1.5,2.1 -0.1,0 -0.2,0 -0.2,-0.1 -0.1,-0.1 0,-0.3 0.1,-0.4 0.5,-0.5 1,-1 1.6,-1.6 z"
               id="path4927" /></g><g
             id="g5183"><g
               id="g4875"><path
                 id="path4873"
                 d="m 75.1,111 v 0 c -1.4,0 -2.7,-0.1 -4,-0.2 l 0.1,-1 c 1.3,0.1 2.6,0.2 3.8,0.2 z m 4,-0.3 -0.1,-1 c 1.3,-0.1 2.6,-0.4 3.9,-0.7 l 0.2,1 c -1.3,0.4 -2.7,0.6 -4,0.7 z m -12,-0.6 c -1.3,-0.3 -2.6,-0.7 -3.9,-1.1 l 0.3,-0.9 c 1.2,0.4 2.5,0.8 3.8,1.1 z m 19.8,-1.2 -0.3,-0.9 c 1.2,-0.4 2.4,-0.9 3.6,-1.5 l 0.4,0.9 c -1.1,0.6 -2.4,1.1 -3.7,1.5 z m -27.4,-1.5 c -1.2,-0.6 -2.4,-1.2 -3.5,-1.9 l 0.5,-0.8 c 1.1,0.7 2.3,1.3 3.4,1.9 z m 34.7,-2 -0.5,-0.8 c 1.1,-0.7 2.2,-1.5 3.2,-2.3 l 0.6,0.8 c -1.1,0.8 -2.2,1.6 -3.3,2.3 z m -41.6,-2.2 c -1,-0.8 -2.1,-1.7 -3,-2.7 l 0.7,-0.7 c 0.9,0.9 1.9,1.8 2.9,2.6 z m 47.9,-2.8 -0.7,-0.7 c 0.9,-0.9 1.8,-1.9 2.6,-2.9 l 0.8,0.6 c -0.9,1 -1.8,2 -2.7,3 z M 46.9,97.5 c -0.8,-1 -1.6,-2.1 -2.3,-3.3 l 0.8,-0.5 c 0.7,1.1 1.5,2.2 2.3,3.2 z m 58.6,-3.4 -0.8,-0.5 c 0.7,-1.1 1.3,-2.3 1.9,-3.4 l 0.9,0.4 c -0.7,1.2 -1.3,2.4 -2,3.5 z M 42.6,90.7 C 42,89.5 41.5,88.2 41,87 l 0.9,-0.3 c 0.4,1.2 0.9,2.4 1.5,3.6 z m 66.4,-3.9 -0.9,-0.3 c 0.4,-1.2 0.8,-2.5 1.1,-3.8 l 1,0.2 c -0.4,1.4 -0.8,2.7 -1.2,3.9 z M 40,83.1 c -0.3,-1.3 -0.5,-2.6 -0.7,-4 l 1,-0.1 c 0.1,1.3 0.4,2.6 0.7,3.9 z m 70.7,-4.1 -1,-0.1 c 0.1,-1.3 0.2,-2.6 0.2,-3.9 h 1 v 0 c 0.1,1.3 0,2.7 -0.2,4 z M 39,75.1 V 75 c 0,-1.3 0.1,-2.6 0.2,-3.9 l 1,0.1 C 40.1,72.4 40,73.7 40,75 Z m 70.7,-4 c -0.1,-1.3 -0.4,-2.6 -0.7,-3.9 l 1,-0.2 c 0.3,1.3 0.5,2.6 0.7,4 z m -68.8,-3.8 -1,-0.2 c 0.3,-1.3 0.7,-2.6 1.1,-3.9 l 0.9,0.3 c -0.4,1.3 -0.7,2.6 -1,3.8 z M 108,63.4 c -0.4,-1.2 -0.9,-2.4 -1.5,-3.6 l 0.9,-0.4 c 0.6,1.2 1.1,2.5 1.5,3.7 z M 43.4,59.9 42.5,59.5 c 0.6,-1.2 1.2,-2.4 1.9,-3.5 l 0.8,0.5 c -0.6,1.1 -1.2,2.3 -1.8,3.4 z m 61.2,-3.5 c -0.7,-1.1 -1.5,-2.2 -2.3,-3.2 l 0.8,-0.6 c 0.8,1 1.6,2.2 2.3,3.3 z m -57,-3.1 -0.8,-0.6 c 0.8,-1 1.7,-2.1 2.7,-3 l 0.7,0.7 c -0.9,0.9 -1.8,1.9 -2.6,2.9 z m 52.1,-3 c -0.9,-0.9 -1.9,-1.8 -2.9,-2.6 l 0.6,-0.8 c 1,0.8 2.1,1.7 3,2.7 z M 53.1,47.7 52.5,47 c 1,-0.8 2.1,-1.6 3.3,-2.3 l 0.5,0.8 c -1.1,0.7 -2.2,1.4 -3.2,2.2 z m 40.5,-2.3 c -1.1,-0.7 -2.3,-1.3 -3.4,-1.9 l 0.4,-0.9 c 1.2,0.6 2.4,1.2 3.5,2 z M 59.7,43.5 59.3,42.6 C 60.5,42 61.8,41.5 63,41 l 0.3,0.9 c -1.2,0.6 -2.4,1.1 -3.6,1.6 z M 86.5,42 C 85.3,41.6 84,41.2 82.7,40.9 l 0.2,-1 c 1.3,0.3 2.6,0.7 3.9,1.1 z m -19.4,-1.1 -0.2,-1 c 1.3,-0.3 2.6,-0.5 4,-0.7 l 0.1,1 c -1.3,0.2 -2.6,0.4 -3.9,0.7 z M 78.9,40.3 C 77.6,40.1 76.3,40 75,40 H 74.9 V 39 H 75 c 0,0 0,0 0,0 1.4,0 2.7,0.1 4,0.2 z"
                 inkscape:connector-curvature="0"
                 style="fill:#62a4d1" /></g><g
               id="g4879"><path
                 id="path4877"
                 d="M 75.1,123.8 H 75 c 0,0 0,0 0,0 -1.3,0 -2.6,-0.1 -3.9,-0.2 l 0.1,-1 c 1.3,0.1 2.6,0.2 3.8,0.2 z m 4,-0.2 -0.1,-1 c 1.3,-0.1 2.6,-0.3 3.9,-0.5 l 0.2,1 c -1.3,0.3 -2.6,0.4 -4,0.5 z m -12,-0.4 c -1.3,-0.2 -2.7,-0.5 -3.9,-0.8 l 0.2,-1 c 1.3,0.3 2.6,0.6 3.9,0.8 z m 20,-0.9 -0.2,-1 c 1.3,-0.3 2.5,-0.7 3.8,-1.1 l 0.3,0.9 c -1.3,0.5 -2.6,0.9 -3.9,1.2 z m -27.8,-1.1 c -1.3,-0.4 -2.5,-0.9 -3.8,-1.5 l 0.4,-0.9 c 1.2,0.5 2.4,1 3.7,1.4 z m 35.4,-1.5 -0.4,-0.9 c 1.2,-0.5 2.4,-1.1 3.5,-1.7 l 0.5,0.9 c -1.2,0.5 -2.4,1.1 -3.6,1.7 z M 51.9,118 c -1.2,-0.6 -2.3,-1.3 -3.5,-2.1 l 0.5,-0.8 c 1.1,0.7 2.2,1.4 3.4,2 z m 49.9,-2.2 -0.5,-0.8 c 1.1,-0.7 2.2,-1.5 3.2,-2.3 l 0.6,0.8 c -1.1,0.8 -2.2,1.6 -3.3,2.3 z M 45.1,113.6 C 44,112.8 43,111.9 42,111 l 0.7,-0.7 c 1,0.9 2,1.7 3,2.5 z m 63,-2.7 -0.7,-0.7 c 1,-0.9 1.9,-1.8 2.8,-2.8 l 0.7,0.7 c -0.8,0.9 -1.8,1.9 -2.8,2.8 z m -68.9,-2.7 c -0.9,-1 -1.8,-2 -2.6,-3.1 l 0.8,-0.6 c 0.8,1 1.7,2 2.6,3 z m 74.4,-3.3 -0.8,-0.6 c 0.8,-1 1.6,-2.1 2.3,-3.2 l 0.8,0.5 c -0.7,1.2 -1.5,2.3 -2.3,3.3 z m -79.4,-3.1 c -0.7,-1.1 -1.4,-2.3 -2.1,-3.5 L 33,97.8 c 0.6,1.1 1.3,2.3 2,3.4 z m 83.8,-3.6 -0.9,-0.5 c 0.6,-1.2 1.2,-2.4 1.7,-3.6 l 0.9,0.4 c -0.5,1.3 -1.1,2.5 -1.7,3.7 z M 30.3,94.7 c -0.5,-1.2 -1,-2.5 -1.5,-3.7 l 0.9,-0.3 c 0.4,1.2 0.9,2.5 1.4,3.7 z m 90.9,-3.9 -0.9,-0.3 c 0.4,-1.2 0.8,-2.5 1.1,-3.8 l 1,0.2 c -0.4,1.3 -0.8,2.6 -1.2,3.9 z M 27.7,87.1 c -0.3,-1.3 -0.6,-2.6 -0.8,-3.9 l 1,-0.2 c 0.2,1.3 0.5,2.6 0.8,3.9 z m 95.5,-4.1 -1,-0.2 c 0.2,-1.3 0.4,-2.6 0.5,-3.9 l 1,0.1 c -0.1,1.3 -0.3,2.7 -0.5,4 z M 26.4,79.2 c -0.1,-1.3 -0.2,-2.7 -0.2,-4 h 1 c 0,1.3 0.1,2.6 0.2,3.9 z m 96.4,-4.3 c 0,-1.3 -0.1,-2.6 -0.2,-3.9 l 1,-0.1 c 0.1,1.3 0.2,2.7 0.2,4 z m -95.5,-3.7 -1,-0.1 c 0.1,-1.3 0.3,-2.7 0.5,-4 l 1,0.2 c -0.2,1.3 -0.4,2.6 -0.5,3.9 z m 94.9,-4.1 c -0.2,-1.3 -0.5,-2.6 -0.8,-3.9 l 1,-0.2 c 0.3,1.3 0.6,2.6 0.8,3.9 z m -93.6,-3.7 -1,-0.2 c 0.3,-1.3 0.7,-2.6 1.1,-3.9 l 0.9,0.3 c -0.3,1.3 -0.7,2.5 -1,3.8 z m 91.6,-4 c -0.4,-1.2 -0.9,-2.5 -1.4,-3.7 l 0.9,-0.4 c 0.5,1.2 1,2.5 1.5,3.8 z M 31.1,55.9 30.2,55.5 C 30.7,54.3 31.3,53 32,51.9 l 0.9,0.5 c -0.7,1.1 -1.2,2.3 -1.8,3.5 z m 86,-3.7 c -0.6,-1.2 -1.3,-2.3 -2,-3.4 l 0.8,-0.5 c 0.7,1.1 1.4,2.3 2.1,3.5 z M 34.9,49 34,48.4 c 0.7,-1.1 1.5,-2.2 2.3,-3.3 l 0.8,0.6 c -0.8,1.1 -1.5,2.2 -2.2,3.3 z m 77.8,-3.4 c -0.8,-1 -1.7,-2 -2.6,-3 l 0.7,-0.7 c 0.9,1 1.8,2 2.6,3.1 z M 39.7,42.7 39,42.1 c 0.9,-1 1.9,-2 2.8,-2.9 l 0.7,0.7 c -1,0.9 -1.9,1.9 -2.8,2.8 z m 67.7,-2.9 c -1,-0.9 -2,-1.8 -3,-2.6 l 0.6,-0.8 c 1.1,0.8 2.1,1.7 3.1,2.6 z M 45.5,37.4 44.9,36.6 C 46,35.8 47.1,35 48.2,34.2 l 0.5,0.8 c -1.1,0.8 -2.2,1.6 -3.2,2.4 z M 101.1,35 C 100,34.3 98.9,33.6 97.7,33 l 0.5,-0.9 c 1.2,0.6 2.3,1.3 3.5,2.1 z m -49,-2 -0.5,-0.9 c 1.2,-0.6 2.4,-1.2 3.6,-1.8 l 0.4,0.9 c -1.2,0.6 -2.4,1.2 -3.5,1.8 z m 42.1,-1.8 c -1.2,-0.5 -2.4,-1 -3.7,-1.4 l 0.3,-0.9 c 1.3,0.4 2.5,0.9 3.8,1.5 z M 59.3,29.8 59,28.9 c 1.3,-0.4 2.6,-0.8 3.9,-1.2 l 0.2,1 c -1.3,0.3 -2.6,0.7 -3.8,1.1 z M 86.7,28.6 C 85.4,28.3 84.1,28 82.8,27.8 l 0.2,-1 c 1.3,0.2 2.7,0.5 3.9,0.8 z m -19.8,-0.7 -0.2,-1 c 1.3,-0.2 2.7,-0.4 4,-0.5 l 0.1,1 c -1.3,0.1 -2.6,0.2 -3.9,0.5 z m 12,-0.6 C 77.6,27.2 76.3,27.1 75,27.1 h -0.2 v -1 H 75 c 1.3,0 2.7,0.1 4,0.2 z"
                 inkscape:connector-curvature="0"
                 style="fill:#62a4d1" /></g><g
               id="g4883"><path
                 id="path4881"
                 d="m 75.1,137.3 v -1 c 1.3,0 2.6,0 3.9,-0.1 l 0.1,1 c -1.3,0.1 -2.7,0.1 -4,0.1 z m -4,-0.1 c -1.3,-0.1 -2.7,-0.2 -4,-0.4 l 0.1,-1 c 1.3,0.2 2.6,0.3 3.9,0.4 z m 12,-0.4 -0.1,-1 c 1.3,-0.2 2.6,-0.4 3.9,-0.6 l 0.2,1 c -1.4,0.2 -2.7,0.4 -4,0.6 z m -19.9,-0.6 c -1.3,-0.2 -2.6,-0.5 -3.9,-0.9 l 0.3,-1 c 1.3,0.3 2.6,0.6 3.8,0.9 z m 27.7,-0.9 -0.3,-1 c 1.3,-0.3 2.5,-0.7 3.8,-1.1 l 0.3,0.9 c -1.2,0.5 -2.5,0.8 -3.8,1.2 z m -35.4,-1.1 c -1.3,-0.4 -2.5,-0.9 -3.8,-1.4 l 0.4,-0.9 c 1.2,0.5 2.5,0.9 3.7,1.4 z m 43,-1.5 -0.4,-0.9 c 1.2,-0.5 2.4,-1 3.6,-1.6 l 0.4,0.9 c -1.2,0.6 -2.4,1.1 -3.6,1.6 z m -50.4,-1.5 c -1.2,-0.6 -2.4,-1.2 -3.5,-1.8 l 0.5,-0.9 c 1.1,0.6 2.3,1.2 3.5,1.8 z m 57.6,-1.9 -0.5,-0.9 c 1.1,-0.6 2.3,-1.3 3.4,-2 l 0.5,0.8 c -1.1,0.7 -2.3,1.4 -3.4,2.1 z m -64.6,-2 C 40,126.6 38.9,125.8 37.8,125 l 0.6,-0.8 c 1,0.8 2.1,1.5 3.2,2.2 z m 71.2,-2.4 -0.6,-0.8 c 1,-0.8 2.1,-1.6 3.1,-2.5 l 0.6,0.8 c -1,0.9 -2,1.7 -3.1,2.5 z m -77.6,-2.4 c -1,-0.9 -2,-1.8 -3,-2.7 l 0.7,-0.7 c 0.9,0.9 1.9,1.8 2.9,2.6 z m 83.7,-2.8 -0.7,-0.7 c 0.9,-0.9 1.9,-1.9 2.7,-2.8 l 0.7,0.7 c -0.8,0.9 -1.8,1.9 -2.7,2.8 z M 28.9,117 c -0.9,-1 -1.8,-2 -2.6,-3 l 0.8,-0.6 c 0.8,1 1.7,2 2.6,3 z m 94.9,-3.2 -0.8,-0.6 c 0.8,-1 1.6,-2.1 2.4,-3.2 l 0.8,0.6 c -0.8,1.1 -1.6,2.2 -2.4,3.2 z m -99.8,-3 c -0.8,-1.1 -1.5,-2.2 -2.2,-3.3 l 0.9,-0.5 c 0.7,1.1 1.4,2.2 2.2,3.3 z m 104.3,-3.5 -0.9,-0.5 c 0.7,-1.1 1.3,-2.3 1.9,-3.4 l 0.9,0.5 c -0.5,1.1 -1.2,2.2 -1.9,3.4 z M 19.8,103.9 c -0.6,-1.2 -1.2,-2.4 -1.7,-3.6 L 19,100 c 0.5,1.2 1.1,2.4 1.7,3.5 z m 112.2,-3.7 -0.9,-0.4 c 0.5,-1.2 1,-2.4 1.5,-3.6 l 0.9,0.3 c -0.4,1.2 -0.9,2.5 -1.5,3.7 z M 16.6,96.7 c -0.5,-1.2 -0.9,-2.5 -1.3,-3.8 l 1,-0.3 c 0.4,1.2 0.8,2.5 1.2,3.7 z m 118.2,-4 -1,-0.3 c 0.4,-1.2 0.7,-2.5 1,-3.8 l 1,0.2 c -0.3,1.3 -0.6,2.6 -1,3.9 z M 14.3,89 C 14,87.7 13.7,86.4 13.5,85.1 l 1,-0.2 c 0.2,1.3 0.5,2.6 0.8,3.9 z m 122.2,-4.1 -1,-0.2 c 0.2,-1.3 0.4,-2.6 0.5,-3.9 l 1,0.1 c -0.1,1.3 -0.3,2.7 -0.5,4 z M 13,81.1 c -0.1,-1.3 -0.2,-2.7 -0.3,-4 h 1 c 0,1.3 0.1,2.6 0.3,3.9 z m 124.3,-4.2 h -1 c 0,-0.6 0,-1.3 0,-1.9 0,-0.7 0,-1.3 0,-2 h 1 c 0,0.7 0,1.4 0,2.1 0,0.5 0,1.2 0,1.8 z M 13.7,73.2 h -1 c 0,-1.3 0.1,-2.7 0.2,-4 l 1,0.1 c -0.1,1.3 -0.2,2.6 -0.2,3.9 z M 136,69.1 c -0.1,-1.3 -0.3,-2.6 -0.5,-3.9 l 1,-0.2 c 0.2,1.3 0.4,2.6 0.5,4 z m -121.6,-3.7 -1,-0.2 c 0.2,-1.3 0.5,-2.6 0.7,-3.9 l 1,0.2 c -0.2,1.3 -0.5,2.6 -0.7,3.9 z m 120.4,-4.1 c -0.3,-1.3 -0.6,-2.5 -1,-3.8 l 1,-0.3 c 0.4,1.3 0.7,2.6 1,3.9 z m -118.6,-3.6 -1,-0.3 c 0.4,-1.3 0.8,-2.5 1.2,-3.8 l 0.9,0.3 c -0.4,1.3 -0.8,2.6 -1.1,3.8 z M 132.5,53.8 C 132,52.6 131.6,51.4 131,50.2 l 0.9,-0.4 c 0.5,1.2 1,2.5 1.5,3.7 z M 18.8,50.3 17.9,49.9 c 0.5,-1.2 1.1,-2.4 1.7,-3.6 l 0.9,0.5 c -0.6,1.1 -1.1,2.3 -1.7,3.5 z m 110.6,-3.7 c -0.6,-1.2 -1.3,-2.3 -1.9,-3.4 l 0.9,-0.5 c 0.7,1.1 1.3,2.3 2,3.5 z M 22.5,43.4 21.6,42.9 c 0.7,-1.1 1.4,-2.3 2.2,-3.4 l 0.8,0.6 c -0.7,1 -1.5,2.1 -2.1,3.3 z m 102.8,-3.5 c -0.7,-1.1 -1.5,-2.1 -2.4,-3.1 l 0.8,-0.6 c 0.8,1 1.6,2.1 2.4,3.2 z M 27,36.9 26.2,36.3 c 0.8,-1 1.7,-2.1 2.6,-3 l 0.7,0.7 c -0.9,0.9 -1.7,1.9 -2.5,2.9 z m 93.4,-3.1 c -0.9,-1 -1.8,-1.9 -2.7,-2.8 l 0.7,-0.7 c 1,0.9 1.9,1.9 2.8,2.9 z M 32.2,31.1 31.5,30.4 c 1,-0.9 1.9,-1.8 2.9,-2.7 l 0.7,0.8 c -1,0.8 -1.9,1.7 -2.9,2.6 z m 82.5,-2.8 c -1,-0.8 -2,-1.7 -3.1,-2.5 l 0.6,-0.8 c 1.1,0.8 2.1,1.6 3.1,2.5 z M 38.2,26 37.6,25.2 c 1.1,-0.8 2.2,-1.6 3.3,-2.3 l 0.5,0.8 c -1.1,0.7 -2.2,1.5 -3.2,2.3 z m 70.3,-2.4 c -1.1,-0.7 -2.2,-1.4 -3.4,-2 l 0.5,-0.9 c 1.2,0.7 2.3,1.3 3.4,2.1 z M 44.7,21.7 44.2,20.8 c 1.2,-0.7 2.3,-1.3 3.5,-1.9 l 0.4,0.9 C 47,20.4 45.9,21 44.7,21.7 Z m 56.9,-2 C 100.4,19.1 99.2,18.6 98,18.1 l 0.4,-0.9 c 1.2,0.5 2.5,1 3.7,1.6 z M 51.8,18.2 51.4,17.3 c 1.2,-0.5 2.5,-1 3.7,-1.4 l 0.3,0.9 c -1.2,0.5 -2.4,0.9 -3.6,1.4 z M 94.3,16.8 C 93.1,16.4 91.8,16 90.5,15.7 l 0.3,-1 c 1.3,0.3 2.6,0.7 3.8,1.1 z m -35.1,-1.1 -0.3,-1 c 1.3,-0.3 2.6,-0.6 3.9,-0.9 l 0.2,1 c -1.2,0.3 -2.5,0.6 -3.8,0.9 z m 27.5,-0.9 c -1.3,-0.2 -2.6,-0.5 -3.9,-0.6 l 0.1,-1 c 1.3,0.2 2.6,0.4 3.9,0.6 z M 67,14.2 l -0.1,-1 c 1.3,-0.2 2.6,-0.3 4,-0.4 l 0.1,1 c -1.5,0.1 -2.8,0.2 -4,0.4 z M 78.9,13.8 C 77.6,13.7 76.3,13.7 75,13.7 h -0.2 v -1 H 75 c 1.3,0 2.7,0 4,0.1 z"
                 inkscape:connector-curvature="0"
                 style="fill:#62a4d1" /></g><circle
               id="circle4885"
               r="5"
               cy="110.81907"
               cx="124.89184"
               style="fill:#c43e28" /><circle
               id="circle4893"
               r="7.6999998"
               cy="23.84148"
               cx="40.950191"
               style="fill:#62a4d1" /><g
               transform="translate(-10.249808,-9.3585207)"
               id="g4907"><g
                 id="g4905"><g
                   id="g4903"><defs
                     id="defs4896"><circle
                       r="7.6999998"
                       cy="33.200001"
                       cx="51.200001"
                       id="circle5003" /></defs><clipPath
                     id="SVGID_4_"><use
                       id="use4898"
                       overflow="visible"
                       xlink:href="#SVGID_39_"
                       style="overflow:visible"
                       x="0"
                       y="0"
                       width="100%"
                       height="100%" /></clipPath><circle
                     id="circle4901"
                     r="7.6999998"
                     cy="30.299999"
                     cx="48.099998"
                     clip-path="url(#SVGID_4_)"
                     style="fill:#436082" /></g></g></g><g
               transform="translate(-13.4,-32.8)"
               id="g4969"><circle
                 id="circle4965"
                 r="7.5999999"
                 cy="53.400002"
                 cx="118.1"
                 style="fill:#f99b21" /><path
                 id="path4967"
                 d="m 125.5,51.7 c -0.2,-0.7 -0.4,-1.4 -0.8,-2.1 v 0 c -0.1,-0.2 -0.2,-0.4 -0.4,-0.6 -0.1,0.3 -0.1,0.6 -0.1,0.9 0,0.2 0,0.4 -0.1,0.6 0,0.1 -0.1,0.2 -0.2,0.2 -0.1,0 -0.1,-0.1 -0.1,-0.2 0,-0.2 0,-0.4 0,-0.5 0,-0.1 0,-0.3 -0.1,-0.3 -0.1,0 -0.3,0 -0.3,0.1 -0.1,0.1 -0.1,0.2 -0.1,0.3 -0.1,0.3 -0.1,0.5 -0.3,0.8 -0.1,0.2 -0.3,0.3 -0.4,0.2 -0.2,-0.1 0,-0.2 0,-0.3 0,-0.2 -0.1,-0.5 -0.3,-0.5 -0.3,0 -0.3,0.2 -0.4,0.4 -0.1,0.3 0,0.6 -0.1,0.9 -0.1,0.2 -0.2,0.2 -0.3,0.1 -0.3,-0.2 -0.4,-0.6 -0.4,-0.9 0.1,-0.3 0,-0.6 -0.2,-0.9 -0.2,-0.2 -0.3,-0.5 -0.2,-0.8 0,-0.7 -0.4,-1.2 -0.7,-1.8 0,0 0,0 0,0 -0.1,-0.1 -0.3,-0.1 -0.4,0 -0.1,0.1 0,0.3 0.1,0.3 0.4,0.3 0.6,0.7 0.5,1.2 0,0.1 0,0.2 0,0.2 0,0.4 0.3,0.7 0.2,1.1 0,0.2 0,0.4 -0.2,0.5 -0.2,0.1 -0.4,0 -0.5,-0.1 -0.1,-0.1 -0.3,-0.2 -0.5,-0.1 -0.2,0.1 -0.3,-0.1 -0.3,-0.3 0,-0.1 0,-0.2 0,-0.3 0,-0.3 -0.2,-0.5 -0.7,-0.5 -0.3,0 -0.2,0.2 -0.2,0.4 0,0.1 -0.1,0.2 -0.1,0.3 -0.1,0.5 -0.1,0.9 0.2,1.3 0.2,0.3 0.2,0.6 -0.2,0.8 -0.2,0.1 -0.4,0.3 -0.3,0.5 0,0.3 -0.1,0.4 -0.4,0.4 -0.3,0 -0.5,-0.1 -0.6,-0.4 -0.1,-0.2 -0.1,-0.4 -0.2,-0.5 0,-0.1 -0.1,-0.2 -0.2,-0.2 -0.1,0 -0.2,0.2 -0.1,0.3 0,0.1 0.1,0.2 0.1,0.3 0.1,0.3 0.3,0.5 0.4,0.8 0.1,0.1 0.1,0.3 0,0.4 0,0.1 -0.1,0.2 -0.2,0.1 -0.1,-0.1 -0.2,-0.2 -0.3,-0.1 -0.1,0.1 0,0.3 0,0.4 0,0.1 0.1,0.2 0.1,0.2 0.1,0.1 0.1,0.2 0,0.3 -0.1,0.1 -0.2,0.1 -0.3,0.1 -0.1,0 -0.1,-0.1 -0.2,-0.1 -0.1,0 -0.2,-0.1 -0.3,0 -0.1,0.1 0,0.1 0,0.2 0,0.1 0,0.2 0,0.3 0,0.2 0.1,0.4 -0.1,0.4 -0.1,0.1 -0.2,-0.2 -0.3,-0.2 -0.2,-0.2 -0.5,-0.2 -0.7,0.1 -0.1,0.1 -0.1,0.2 -0.2,0.3 -0.2,0.2 -0.5,0.2 -0.6,-0.1 0,-0.1 -0.1,-0.2 -0.1,-0.4 0,-0.2 -0.1,-0.4 -0.4,-0.4 -0.3,0 -0.4,-0.2 -0.3,-0.4 0.1,-0.2 0.2,-0.4 0.3,-0.6 0.1,-0.2 0.2,-0.4 0.1,-0.7 -0.2,-0.3 -0.2,-0.6 0,-0.9 0.1,-0.2 0.1,-0.3 0,-0.5 -0.2,-0.1 -0.3,-0.3 -0.2,-0.5 0,-0.1 0,-0.1 -0.1,-0.1 -0.2,0 -0.2,-0.1 -0.1,-0.2 0.1,-0.3 0.2,-0.6 0.3,-0.9 -0.4,0 -0.7,0.2 -0.8,0.7 -0.1,0.5 0,0.9 0,1.4 0,0.3 -0.2,0.6 -0.4,0.6 -0.3,-0.1 -0.3,-0.3 -0.3,-0.6 0,-0.4 0.1,-0.7 0.1,-1.1 0,-0.2 -0.1,-0.3 -0.2,-0.3 -0.1,0 -0.2,0.1 -0.2,0.2 -0.1,0.2 -0.3,0.3 -0.5,0.2 -0.2,0.6 -0.4,1.2 -0.4,1.8 -0.1,1.4 0,2.7 0.7,3.9 0.2,-0.1 0.4,-0.3 0.6,-0.4 0.2,-0.1 0.2,-0.2 0.1,-0.4 0,-0.1 -0.1,-0.1 0,-0.2 0.1,-0.1 0.2,0 0.2,0.1 0.3,0.2 0.5,0.5 0.6,0.8 0.1,0.2 0.3,0.3 0.5,0.3 0.2,0 0.3,0 0.5,-0.1 0.2,-0.1 0.5,-0.2 0.7,-0.3 0.2,-0.1 0.3,-0.1 0.5,0.1 0.1,0.2 0.3,0.2 0.5,0.1 0.3,-0.1 0.4,-0.1 0.5,0.3 0,0.2 0,0.4 0.1,0.6 0.1,0.4 0.6,0.6 0.9,0.3 0.2,-0.1 0.3,-0.3 0.3,-0.5 0.1,-0.3 0,-0.5 0,-0.8 -0.1,-0.4 0.1,-0.6 0.4,-0.7 0.1,0 0.2,0 0.2,-0.1 0.4,-0.2 0.5,-0.3 0.4,-0.8 0,-0.1 -0.1,-0.2 0,-0.4 0.1,-0.2 0.1,-0.3 0,-0.5 -0.2,-0.6 -0.1,-0.6 0.4,-0.8 0.4,-0.1 0.5,-0.3 0.4,-0.7 0,-0.2 0.1,-0.3 0.2,-0.3 0.5,0 0.9,0 1.3,0.3 0.1,0.1 0.1,0.2 0.2,0.3 0,0.4 0.2,0.7 0.6,0.8 0.3,0.1 0.4,0.3 0.4,0.7 0,0.1 0,0.2 0,0.3 0,0.4 0,0.5 0.4,0.4 0.2,0 0.5,0 0.5,0.3 0,0 0,0 0,0 0,0 0,0 0,0.1 0.1,0.1 0.1,0.2 0.2,0.3 0.1,0.2 0.2,0.4 0.2,0.6 0,0.1 0,0.5 0.2,0.4 0.3,-0.1 0.3,0.1 0.4,0.3 0,0.1 0,0.2 0.1,0.2 0.1,0 0.1,-0.1 0.1,-0.2 0,-0.3 -0.1,-0.5 0,-0.8 0.3,0.2 0.4,0.3 0.6,0.1 0.2,-0.1 0.3,0 0.4,0.2 0.1,0.2 0,0.4 0.1,0.5 1,-1.9 1.2,-3.7 0.8,-5.5 z"
                 inkscape:connector-curvature="0"
                 style="fill:#dc8527" /></g></g></g></g></g><g
       id="g5293"><path
         style="fill:#8cc5e7"
         inkscape:connector-curvature="0"
         id="path2"
         d="m 374.02032,32.691406 c -6.7,-13.7 -22.9,-1.6 -27,-5.9 -21,-21.5999996 -46.4,-26.99999956 -66.3,-28.0000001 0,0 -9,0 -11,0 -20,0.50000004 -45.4,6.3000005 -66.3,28.0000001 -4.1,4.3 -20.4,-7.8 -27,5.9 -7.7,16 15.7,17.6 14.5,24.7 -2.3,12.8 -0.8,31.8 1,50.500004 2.8,31.7 -20.9,107.6 28.4,138.1 9.3,5.8 34.4,9 56.2,9.5 v 0 c 0,0 0.1,0 0.1,0 0,0 0.1,0 0.1,0 v 0 c 21.8,-0.5 43.9,-3.7 53.2,-9.5 49.4,-30.5 25.7,-106.4 28.6,-138.1 1.7,-18.700004 3.2,-37.700004 1,-50.500004 -1.2,-7.1 22.2,-8.8 14.5,-24.7 z" /><g
         transform="translate(166.72032,-11.908594)"
         id="g10"><path
           style="fill:#e0dedc"
           inkscape:connector-curvature="0"
           id="path4"
           d="m 143.2,54.3 c -33.4,3.9 -28.9,38.7 -16,50 24,21 49,0 46.2,-21.2 -2.5,-20.4 -19.8,-30 -30.2,-28.8 z" /></g><g
         transform="translate(166.72032,-11.908594)"
         id="g18"><path
           style="fill:#b8937f"
           inkscape:connector-curvature="0"
           id="path12"
           d="m 108.5,107 c -16,2.4 -21.7,7 -20.5,14.2 2,11.8 39.7,10.5 40.9,0.6 1,-8.5 -14.1,-15.7 -20.4,-14.8 z" /><path
           inkscape:connector-curvature="0"
           id="path14"
           d="m 98.2,111.8 c -2.7,9.8 21.7,8.3 21.1,2 -0.3,-3.7 -3.6,-8.4 -12.3,-8.2 -3.4,0.1 -7.6,1.6 -8.8,6.2 z" /><path
           style="fill:#e0dedc"
           inkscape:connector-curvature="0"
           id="path16"
           d="m 99,127.7 c -0.9,0.4 -2.4,10.2 2.2,10.7 3.1,0.3 11.6,1.3 13.6,0 3.9,-2.5 3.5,-8.5 1.3,-10 C 112.4,126 100,127.2 99,127.7 Z" /></g><g
         transform="translate(166.72032,-11.908594)"
         id="g26"><path
           style="fill:#e0dedc"
           inkscape:connector-curvature="0"
           id="path20"
           d="m 73.6,54.3 c 33.4,3.9 28.9,38.7 16,50 -24,21 -49,0 -46.2,-21.2 2.6,-20.4 19.9,-30 30.2,-28.8 z" /></g><path
         style="fill:#b8937f"
         inkscape:connector-curvature="0"
         id="path28"
         d="m 360.32032,174.79141 c 11,0.1 5.6,-23.5 -1.2,-18.8 -3.3,2.3 -3.9,7.6 -3.9,12.1 0,2.5 2,6.6 5.1,6.7 z" /><path
         style="fill:#b8937f"
         inkscape:connector-curvature="0"
         id="path30"
         d="m 190.02032,174.79141 c -11,0.1 -5.6,-23.5 1.2,-18.8 3.3,2.3 3.9,7.6 3.9,12.1 0,2.5 -2,6.6 -5.1,6.7 z" /><path
         style="fill:#b8937f"
         inkscape:connector-curvature="0"
         id="path32"
         d="m 339.42032,247.29141 c -6,-8.9 -11.4,-2 -20.1,2.4 -4.1,2.1 6.8,9.6 19,4 3.2,-1.5 3.1,-3.5 1.1,-6.4 z" /><path
         style="fill:#b8937f"
         inkscape:connector-curvature="0"
         id="path34"
         d="m 210.92032,248.29141 c 6,-8.9 11.4,-2 20.1,2.4 4.1,2.1 -6.8,9.6 -19,4 -3.2,-1.5 -3.1,-3.5 -1.1,-6.4 z" /><path
         style="fill:#3c89bf"
         inkscape:connector-curvature="0"
         id="path36"
         d="m 355.32032,35.091406 c -0.6,2.1 2.1,1.8 3.1,8.3 0.4,2.4 9,-3.5 5.5,-7.8 -2.9,-3.6 -8.1,-2.6 -8.6,-0.5 z" /><path
         style="fill:#3c89bf"
         inkscape:connector-curvature="0"
         id="path38"
         d="m 195.02032,35.091406 c 0.6,2.1 -2.1,1.8 -3.1,8.3 -0.4,2.4 -9,-3.5 -5.5,-7.8 2.8,-3.6 8,-2.6 8.6,-0.5 z" /><path
         transform="matrix(0.83488872,0,0,0.87705301,170.53709,-3.5946443)"
         d="m 70.807861,86.878403 c 1.339392,-0.177509 0.900087,1.717896 0.295032,2.226156 -1.639663,1.377354 -3.969748,0.01592 -4.747344,-1.636094 -1.390937,-2.955064 0.708075,-6.254359 3.567219,-7.268531 4.195908,-1.488339 8.577923,1.431499 9.789719,5.498344 1.615132,5.420465 -2.153358,10.916359 -7.429469,12.310906 -6.639449,1.754896 -13.262137,-2.874138 -14.832094,-9.360594 -1.901429,-7.855967 3.594244,-15.612101 11.291719,-17.353281 9.071207,-2.051921 17.964683,4.313919 19.874469,13.222844 2.204923,10.285705 -5.033309,20.319017 -15.153969,22.395657 -11.499739,2.35961 -22.674568,-5.7525 -24.916845,-17.085095 -2.515495,-12.71346 6.471546,-25.031014 19.01622,-27.438032 13.926965,-2.672245 27.388129,7.190488 29.959219,20.947345"
         sodipodi:t0="0"
         sodipodi:argument="-18.981318"
         sodipodi:radius="26.947456"
         sodipodi:revolution="3"
         sodipodi:expansion="1"
         sodipodi:cy="86.878403"
         sodipodi:cx="70.807861"
         id="path182"
         style="opacity:1;fill:none;fill-rule:evenodd;stroke:#000000;stroke-width:3.70000005;stroke-linecap:round;stroke-miterlimit:4;stroke-dasharray:none;paint-order:normal"
         sodipodi:type="spiral" /><path
         transform="matrix(-0.95316538,0,0,-0.90643989,175.07724,-6.3343721)"
         d="m -152.96216,-81.419289 c 1.33939,-0.177508 0.90009,1.717896 0.29503,2.226157 -1.63966,1.377354 -3.96974,0.01592 -4.74734,-1.636094 -1.39094,-2.955065 0.70807,-6.254359 3.56722,-7.268532 4.19591,-1.488338 8.57792,1.431499 9.78972,5.498344 1.61513,5.420465 -2.15336,10.916359 -7.42947,12.310907 -6.63945,1.754895 -13.26214,-2.874138 -14.8321,-9.360594 -1.90142,-7.855968 3.59425,-15.612101 11.29172,-17.353282 9.07121,-2.051921 17.96469,4.31392 19.87447,13.222844 2.20493,10.285706 -5.03331,20.319014 -15.15397,22.395657 -11.49974,2.359614 -22.67456,-5.752498 -24.91684,-17.085094 -2.5155,-12.71346 6.47154,-25.031014 19.01622,-27.438034 13.92696,-2.67224 27.38813,7.19049 29.95922,20.947346"
         sodipodi:t0="0"
         sodipodi:argument="-18.981318"
         sodipodi:radius="26.947456"
         sodipodi:revolution="3"
         sodipodi:expansion="1"
         sodipodi:cy="-81.419289"
         sodipodi:cx="-152.96216"
         id="path182-3"
         style="opacity:1;fill:none;fill-rule:evenodd;stroke:#000000;stroke-width:3.70000005;stroke-linecap:round;stroke-miterlimit:4;stroke-dasharray:none;paint-order:normal"
         sodipodi:type="spiral" /></g></g></svg>