<svg xmlns="http://www.w3.org/2000/svg" xmlns:xlink="http://www.w3.org/1999/xlink" width="950" height="720"><g transform="translate(-80 -160)" lucid:page-tab-id="buT-jcaFrKpm"><path d="M0 0h1360v1760H0z" fill="#fff"/><path d="M240 288c0 6.63-26.86 12-60 12s-60-5.37-60-12v-96c0-6.63 26.86-12 60-12s60 5.37 60 12z" stroke="#000" stroke-width="2" fill="#fff"/><path d="M240 192c0 6.63-26.86 12-60 12s-60-5.37-60-12" stroke="#000" stroke-width="2" fill="none"/><use xlink:href="#a" transform="matrix(1,0,0,1,125,209) translate(32 46.6)"/><path d="M260 308c0 6.63-26.86 12-60 12s-60-5.37-60-12v-96c0-6.63 26.86-12 60-12s60 5.37 60 12z" stroke="#000" stroke-width="2" fill="#fff"/><path d="M260 212c0 6.63-26.86 12-60 12s-60-5.37-60-12" stroke="#000" stroke-width="2" fill="none"/><use xlink:href="#a" transform="matrix(1,0,0,1,145,229) translate(32 46.6)"/><path d="M280 328c0 6.63-26.86 12-60 12s-60-5.37-60-12v-96c0-6.63 26.86-12 60-12s60 5.37 60 12z" stroke="#000" stroke-width="2" fill="#fff"/><path d="M280 232c0 6.63-26.86 12-60 12s-60-5.37-60-12" stroke="#000" stroke-width="2" fill="none"/><use xlink:href="#a" transform="matrix(1,0,0,1,165,249) translate(32 46.6)"/><path d="M357.06 294.25l5.63 1.34 5.63 1.07 6.05.9 6.8.73 8 .5 9.84.2-.04 2-9.9-.2-8.07-.5-6.88-.74-6.12-.9-5.73-1.12-5.75-1.36v-2.1zm-51.18-13.8l6.12.9 5.73 1.1 5.73 1.37.1.03v2.08l-.6-.17-5.65-1.35-5.63-1.07-6.05-.9-6.5-.7.2-1.98zM298.3 285.34l-14.06-5.2 14.44-4.06z"/><path d="M299.24 286.76L281 280l18.73-5.25zm-11.77-6.5l9.9 3.67.25-6.52zM400 299.03v2l-1.03-.03.06-2z"/><use xlink:href="#b" transform="matrix(1,0,0,1,323.5556624668262,279.1009341103846) translate(0 14.4)"/><path d="M400 220h160v120H400z" stroke="#000" stroke-width="2" fill="#fff"/><use xlink:href="#c" transform="matrix(1,0,0,1,405,225) translate(38.5 58.6)"/><path d="M420 240h160v120H420z" stroke="#000" stroke-width="2" fill="#fff"/><use xlink:href="#c" transform="matrix(1,0,0,1,425,245) translate(38.5 58.6)"/><path d="M440 260h160v120H440z" stroke="#000" stroke-width="2" fill="#fff"/><use xlink:href="#c" transform="matrix(1,0,0,1,445,265) translate(38.5 58.6)"/><path d="M460 280h160v120H460z" stroke="#000" stroke-width="2" fill="#fff"/><use xlink:href="#c" transform="matrix(1,0,0,1,465,285) translate(38.5 58.6)"/><path d="M480 300h160v120H480z" stroke="#000" stroke-width="2" fill="#fff"/><use xlink:href="#d" transform="matrix(1,0,0,1,485,305) translate(38.5 37)"/><use xlink:href="#e" transform="matrix(1,0,0,1,485,305) translate(67.025 58.6)"/><use xlink:href="#f" transform="matrix(1,0,0,1,485,305) translate(45.05 80.20000000000002)"/><path d="M900 368c0 6.63-26.86 12-60 12s-60-5.37-60-12v-96c0-6.63 26.86-12 60-12s60 5.37 60 12z" stroke="#000" stroke-width="2" fill="#fff"/><path d="M900 272c0 6.63-26.86 12-60 12s-60-5.37-60-12" stroke="#000" stroke-width="2" fill="none"/><use xlink:href="#g" transform="matrix(1,0,0,1,785,289) translate(16.525 46.6)"/><path d="M920 388c0 6.63-26.86 12-60 12s-60-5.37-60-12v-96c0-6.63 26.86-12 60-12s60 5.37 60 12z" stroke="#000" stroke-width="2" fill="#fff"/><path d="M920 292c0 6.63-26.86 12-60 12s-60-5.37-60-12" stroke="#000" stroke-width="2" fill="none"/><use xlink:href="#g" transform="matrix(1,0,0,1,805,309) translate(16.525 46.6)"/><path d="M940 408c0 6.63-26.86 12-60 12s-60-5.37-60-12v-96c0-6.63 26.86-12 60-12s60 5.37 60 12z" stroke="#000" stroke-width="2" fill="#fff"/><path d="M940 312c0 6.63-26.86 12-60 12s-60-5.37-60-12" stroke="#000" stroke-width="2" fill="none"/><use xlink:href="#g" transform="matrix(1,0,0,1,825,329) translate(16.525 46.6)"/><path d="M960 428c0 6.63-26.86 12-60 12s-60-5.37-60-12v-96c0-6.63 26.86-12 60-12s60 5.37 60 12z" stroke="#000" stroke-width="2" fill="#fff"/><path d="M960 332c0 6.63-26.86 12-60 12s-60-5.37-60-12" stroke="#000" stroke-width="2" fill="none"/><use xlink:href="#g" transform="matrix(1,0,0,1,845,349) translate(16.525 46.6)"/><path d="M980 448c0 6.63-26.86 12-60 12s-60-5.37-60-12v-96c0-6.63 26.86-12 60-12s60 5.37 60 12z" stroke="#000" stroke-width="2" fill="#fff"/><path d="M980 352c0 6.63-26.86 12-60 12s-60-5.37-60-12" stroke="#000" stroke-width="2" fill="none"/><use xlink:href="#h" transform="matrix(1,0,0,1,865,369) translate(1.5749999999999957 46.6)"/><path d="M641 360l7-.14 6.14-.4 5.52-.57 5.02-.75 4.65-.88 4.38-1.03 4.2-1.17 4.1-1.33 4.13-1.54 4.3-1.8 4.8-2.27 6.27-3.3 23.27-12.96 4.8-2.26 4.3-1.8 4.12-1.54 4.1-1.33 4.2-1.17 4.37-1.03 4.65-.88 5.02-.74.47-.04" stroke="#000" stroke-width="2" fill="none"/><path d="M641.05 361l-1.05.05v-2l.95-.05zM775.77 320.2l-13.97 5.44-.54-9.25z"/><path d="M779 320l-18.12 7.08-.7-12zm-16.28 4.2l9.82-3.82-10.2-2.68z"/><path d="M259.75 611.75c0 10.9-8.84 19.75-19.75 19.75-10.9 0-19.75-8.84-19.75-19.75 0-10.9 8.84-19.75 19.75-19.75 10.9 0 19.75 8.84 19.75 19.75z" stroke="#000" stroke-width="2" fill="#fff"/><path d="M200 592h80v158h-80z" fill="none"/><path d="M240 631.5v55.3l40 63.2m-40-63.2L200 750m0-98.75h80" stroke="#000" stroke-width="2" fill="none"/><use xlink:href="#i" transform="matrix(1,0,0,1,120,750) translate(100.55 14.6)"/><path d="M279.75 631.75c0 10.9-8.84 19.75-19.75 19.75-10.9 0-19.75-8.84-19.75-19.75 0-10.9 8.84-19.75 19.75-19.75 10.9 0 19.75 8.84 19.75 19.75z" stroke="#000" stroke-width="2" fill="#fff"/><path d="M220 612h80v158h-80z" fill="none"/><path d="M260 651.5v55.3l40 63.2m-40-63.2L220 770m0-98.75h80" stroke="#000" stroke-width="2" fill="none"/><use xlink:href="#i" transform="matrix(1,0,0,1,140,770) translate(100.55 14.6)"/><path d="M179.75 639.75c0 10.9-8.84 19.75-19.75 19.75-10.9 0-19.75-8.84-19.75-19.75 0-10.9 8.84-19.75 19.75-19.75 10.9 0 19.75 8.84 19.75 19.75z" stroke="#000" stroke-width="2" fill="#fff"/><path d="M120 620h80v158h-80z" fill="none"/><path d="M160 659.5v55.3l40 63.2m-40-63.2L120 778m0-98.75h80" stroke="#000" stroke-width="2" fill="none"/><use xlink:href="#i" transform="matrix(1,0,0,1,40,778) translate(100.55 14.6)"/><path d="M239.75 631.75c0 10.9-8.84 19.75-19.75 19.75-10.9 0-19.75-8.84-19.75-19.75 0-10.9 8.84-19.75 19.75-19.75 10.9 0 19.75 8.84 19.75 19.75z" stroke="#000" stroke-width="2" fill="#fff"/><path d="M180 612h80v158h-80z" fill="none"/><path d="M220 651.5v55.3l40 63.2m-40-63.2L180 770m0-98.75h80" stroke="#000" stroke-width="2" fill="none"/><use xlink:href="#i" transform="matrix(1,0,0,1,100,770) translate(100.55 14.6)"/><path d="M219.75 599.75c0 10.9-8.84 19.75-19.75 19.75-10.9 0-19.75-8.84-19.75-19.75 0-10.9 8.84-19.75 19.75-19.75 10.9 0 19.75 8.84 19.75 19.75z" stroke="#000" stroke-width="2" fill="#fff"/><path d="M160 580h80v158h-80z" fill="none"/><path d="M200 619.5v55.3l40 63.2m-40-63.2L160 738m0-98.75h80" stroke="#000" stroke-width="2" fill="none"/><use xlink:href="#i" transform="matrix(1,0,0,1,80,738) translate(100.55 14.6)"/><path d="M159.25 603.25c0 10.63-8.62 19.25-19.25 19.25s-19.25-8.62-19.25-19.25S129.37 584 140 584s19.25 8.62 19.25 19.25z" stroke="#000" stroke-width="2" fill="#fff"/><path d="M100 584h80v154h-80z" fill="none"/><path d="M140 622.5v53.9l40 61.6m-40-61.6L100 738m0-96.25h80" stroke="#000" stroke-width="2" fill="none"/><use xlink:href="#i" transform="matrix(1,0,0,1,20,738) translate(100.55 14.6)"/><path d="M830 572h160v120H830z" stroke="#000" stroke-width="2" fill="#fff"/><use xlink:href="#j" transform="matrix(1,0,0,1,835,577) translate(42.525 58.6)"/><path d="M850 592h160v120H850z" stroke="#000" stroke-width="2" fill="#fff"/><use xlink:href="#k" transform="matrix(1,0,0,1,855,597) translate(37.574999999999996 58.6)"/><path d="M910 571l.35-16.67.8-11.93 1.18-10.26 6.5-42.54.7-10.37" stroke="#000" stroke-width="2" fill="none"/><path d="M911 571.02l-.02.98h-2l.02-1.02zM924.2 478.6l-9.27-.22 5-14.14z"/><path d="M925.55 479.65l-12.02-.3L920 461zm-9.22-2.23l6.5.16-3-10.1z"/><path d="M620 720h160v120H620z" stroke="#000" stroke-width="2" fill="#fff"/><use xlink:href="#l" transform="matrix(1,0,0,1,625,725) translate(25.525 58.6)"/><path d="M781 780l38.6-.6 17.78-1.1 12.8-1.33 9.97-1.47 8.12-1.54 6.78-1.6 5.76-1.6 5-1.6 4.34-1.62 3.83-1.6 3.4-1.62 3.06-1.6 2.75-1.58 2.5-1.58 2.26-1.58 2.08-1.57 1.9-1.57 1.77-1.6 1.62-1.58 1.5-1.6 1.4-1.63 1.32-1.65 1.2-1.67 1.15-1.7 1.04-1.75.98-1.8.92-1.83.84-1.9.78-1.96.7-2.04.35-1.12" stroke="#000" stroke-width="2" fill="none"/><path d="M781.02 781l-1.02.02v-2l1-.02zM932.2 730.97l-9.2-1.27 6.56-13.5z"/><path d="M933.42 732.15l-11.9-1.65L930 713zm-8.9-3.25l6.44.9-1.85-10.4z"/><path d="M400 720h160v120H400z" stroke="#000" stroke-width="2" fill="#fff"/><use xlink:href="#m" transform="matrix(1,0,0,1,405,725) translate(53.025 58.6)"/><path d="M579.24 780h21.52" stroke="#000" stroke-width="2" fill="none"/><path d="M578.5 784.64L564.24 780l14.26-4.64z"/><path d="M579.5 786l-18.5-6 18.5-6zm-12.03-6l10.03 3.26v-6.52zM615.76 780l-14.26 4.64v-9.28z"/><path d="M619 780l-18.5 6v-12zm-16.5 3.26l10.03-3.26-10.03-3.26z"/><path d="M640 740h160v120H640z" stroke="#000" stroke-width="2" fill="#fff"/><use xlink:href="#n" transform="matrix(1,0,0,1,645,745) translate(25.525 37)"/><use xlink:href="#o" transform="matrix(1,0,0,1,645,745) translate(35.075 58.6)"/><use xlink:href="#p" transform="matrix(1,0,0,1,645,745) translate(6.650000000000006 80.20000000000002)"/><use xlink:href="#q" transform="matrix(1,0,0,1,645,745) translate(93.5 80.20000000000002)"/><path d="M400 540h160v120H400z" stroke="#000" stroke-width="2" fill="#fff"/><use xlink:href="#r" transform="matrix(1,0,0,1,405,545) translate(47.025 58.6)"/><path d="M561 600l36.74-.73 27.83-1.73 22.6-2.36 19.14-2.8 16.62-3.18 14.7-3.44 13.23-3.7 12.02-3.9 11.05-4.1 10.24-4.3 9.56-4.5 9-4.7 8.48-4.9 8.08-5.12 7.72-5.36 7.4-5.63 7.15-5.9 6.9-6.22 6.7-6.57 6.55-6.96 6.4-7.4 6.24-7.9 6.15-8.47 6.05-9.1 5.96-9.87 1.13-2.04" stroke="#000" stroke-width="2" fill="none"/><path d="M561.02 601l-1.02.02v-2l.98-.02zM859.07 470.64l-8.2-4.33 10.78-10.43z"/><path d="M859.82 472.17l-10.63-5.62L863.15 453zm-7.26-6.1l5.76 3.04 1.8-10.37z"/><path d="M300 672l2.5-.06 2.34-.18 2.23-.28 2.12-.38 2.04-.48 2-.56 1.93-.66 1.92-.77 1.9-.87 1.9-1 1.92-1.12 1.96-1.3 2.03-1.47 2.14-1.73 2.26-2.04 2.5-2.47 2.83-3.13 3.5-4.3 5.84-7.96 13.1-18.43 3.5-4.3 2.84-3.13 2.5-2.47 2.26-2.04 2.13-1.73 2.02-1.48 1.96-1.3 1.93-1.12 1.9-1 1.28-.57" stroke="#000" stroke-width="2" fill="none"/><path d="M300.17 673H300v-1zM395.83 600.65l-13.03 7.43-1.88-9.08z"/><path d="M399 600l-16.9 9.63-2.44-11.78zm-15.5 6.53l9.16-5.22-10.48-1.16z"/><path d="M300 672l1.55.04 1.48.1 1.45.17 1.4.24 1.37.3 1.36.34 1.34.4 1.33.5 1.33.55 1.34.62 1.34.72 1.37.8 1.4.9 1.43 1.05 1.48 1.18 1.55 1.35 1.63 1.56 1.73 1.82 1.85 2.14 2.03 2.57 2.25 3.14 2.6 4 3.15 5.4 4.4 8.45 19.14 39.8 3.16 5.4 2.6 4 2.24 3.15 2.02 2.57 1.84 2.14 1.73 1.8 1.62 1.57 1.54 1.35 1.48 1.18 1.43 1.04.83.53" stroke="#000" stroke-width="2" fill="none"/><path d="M300.24 671.03l-.24.98v-1.03zM395.9 779.07l-15 .36 2.66-8.88z"/><path d="M399 780l-19.45.46 3.44-11.52zm-16.74-1.6l10.54-.25-8.68-6z"/><defs><path d="M194 0L95-120 63-95V0H30v-248h33v124l119-124h40L117-140 236 0h-42" id="s"/><path d="M141-36C126-15 110 5 73 4 37 3 15-17 15-53c-1-64 63-63 125-63 3-35-9-54-41-54-24 1-41 7-42 31l-33-3c5-37 33-52 76-52 45 0 72 20 72 64v82c-1 20 7 32 28 27v20c-31 9-61-2-59-35zM48-53c0 20 12 33 32 33 41-3 63-29 60-74-43 2-92-5-92 41" id="t"/><path d="M101-234c-31-9-42 10-38 44h38v23H63V0H32v-167H5v-23h27c-7-52 17-82 69-68v24" id="u"/><path d="M143 0L79-87 56-68V0H24v-261h32v163l83-92h37l-77 82L181 0h-38" id="v"/><g id="a"><use transform="matrix(0.05,0,0,0.05,0,0)" xlink:href="#s"/><use transform="matrix(0.05,0,0,0.05,12,0)" xlink:href="#t"/><use transform="matrix(0.05,0,0,0.05,22,0)" xlink:href="#u"/><use transform="matrix(0.05,0,0,0.05,27,0)" xlink:href="#v"/><use transform="matrix(0.05,0,0,0.05,36,0)" xlink:href="#t"/></g><path d="M127-220V0H93v-220H8v-28h204v28h-85" id="w"/><path d="M100-194c63 0 86 42 84 106H49c0 40 14 67 53 68 26 1 43-12 49-29l28 8c-11 28-37 45-77 45C44 4 14-33 15-96c1-61 26-98 85-98zm52 81c6-60-76-77-97-28-3 7-6 17-6 28h103" id="x"/><path d="M141 0L90-78 38 0H4l68-98-65-92h35l48 74 47-74h35l-64 92 68 98h-35" id="y"/><path d="M59-47c-2 24 18 29 38 22v24C64 9 27 4 27-40v-127H5v-23h24l9-43h21v43h35v23H59v120" id="z"/><g id="b"><use transform="matrix(0.05,0,0,0.05,0,0)" xlink:href="#w"/><use transform="matrix(0.05,0,0,0.05,8.950000000000001,0)" xlink:href="#x"/><use transform="matrix(0.05,0,0,0.05,18.950000000000003,0)" xlink:href="#y"/><use transform="matrix(0.05,0,0,0.05,27.950000000000003,0)" xlink:href="#z"/></g><path d="M30 0v-248h33v221h125V0H30" id="A"/><path d="M100-194c62-1 85 37 85 99 1 63-27 99-86 99S16-35 15-95c0-66 28-99 85-99zM99-20c44 1 53-31 53-75 0-43-8-75-51-75s-53 32-53 75 10 74 51 75" id="B"/><path d="M177-190C167-65 218 103 67 71c-23-6-38-20-44-43l32-5c15 47 100 32 89-28v-30C133-14 115 1 83 1 29 1 15-40 15-95c0-56 16-97 71-98 29-1 48 16 59 35 1-10 0-23 2-32h30zM94-22c36 0 50-32 50-73 0-42-14-75-50-75-39 0-46 34-46 75s6 73 46 73" id="C"/><path d="M135-143c-3-34-86-38-87 0 15 53 115 12 119 90S17 21 10-45l28-5c4 36 97 45 98 0-10-56-113-15-118-90-4-57 82-63 122-42 12 7 21 19 24 35" id="D"/><path d="M106-169C34-169 62-67 57 0H25v-261h32l-1 103c12-21 28-36 61-36 89 0 53 116 60 194h-32v-121c2-32-8-49-39-48" id="E"/><g id="c"><use transform="matrix(0.05,0,0,0.05,0,0)" xlink:href="#A"/><use transform="matrix(0.05,0,0,0.05,10,0)" xlink:href="#B"/><use transform="matrix(0.05,0,0,0.05,20,0)" xlink:href="#C"/><use transform="matrix(0.05,0,0,0.05,30,0)" xlink:href="#D"/><use transform="matrix(0.05,0,0,0.05,39,0)" xlink:href="#z"/><use transform="matrix(0.05,0,0,0.05,44,0)" xlink:href="#t"/><use transform="matrix(0.05,0,0,0.05,54,0)" xlink:href="#D"/><use transform="matrix(0.05,0,0,0.05,63,0)" xlink:href="#E"/></g><g id="d"><use transform="matrix(0.05,0,0,0.05,0,0)" xlink:href="#A"/><use transform="matrix(0.05,0,0,0.05,10,0)" xlink:href="#B"/><use transform="matrix(0.05,0,0,0.05,20,0)" xlink:href="#C"/><use transform="matrix(0.05,0,0,0.05,30,0)" xlink:href="#D"/><use transform="matrix(0.05,0,0,0.05,39,0)" xlink:href="#z"/><use transform="matrix(0.05,0,0,0.05,44,0)" xlink:href="#t"/><use transform="matrix(0.05,0,0,0.05,54,0)" xlink:href="#D"/><use transform="matrix(0.05,0,0,0.05,63,0)" xlink:href="#E"/></g><path d="M114-163C36-179 61-72 57 0H25l-1-190h30c1 12-1 29 2 39 6-27 23-49 58-41v29" id="F"/><g id="e"><use transform="matrix(0.05,0,0,0.05,0,0)" xlink:href="#B"/><use transform="matrix(0.05,0,0,0.05,10,0)" xlink:href="#F"/></g><path d="M63-220v92h138v28H63V0H30v-248h175v28H63" id="G"/><path d="M24 0v-261h32V0H24" id="H"/><path d="M84 4C-5 8 30-112 23-190h32v120c0 31 7 50 39 49 72-2 45-101 50-169h31l1 190h-30c-1-10 1-25-2-33-11 22-28 36-60 37" id="I"/><path d="M117-194c89-4 53 116 60 194h-32v-121c0-31-8-49-39-48C34-167 62-67 57 0H25l-1-190h30c1 10-1 24 2 32 11-22 29-35 61-36" id="J"/><path d="M85-194c31 0 48 13 60 33l-1-100h32l1 261h-30c-2-10 0-23-3-31C134-8 116 4 85 4 32 4 16-35 15-94c0-66 23-100 70-100zm9 24c-40 0-46 34-46 75 0 40 6 74 45 74 42 0 51-32 51-76 0-42-9-74-50-73" id="K"/><g id="f"><use transform="matrix(0.05,0,0,0.05,0,0)" xlink:href="#G"/><use transform="matrix(0.05,0,0,0.05,10.950000000000001,0)" xlink:href="#H"/><use transform="matrix(0.05,0,0,0.05,14.9,0)" xlink:href="#I"/><use transform="matrix(0.05,0,0,0.05,24.900000000000002,0)" xlink:href="#x"/><use transform="matrix(0.05,0,0,0.05,34.900000000000006,0)" xlink:href="#J"/><use transform="matrix(0.05,0,0,0.05,44.900000000000006,0)" xlink:href="#z"/><use transform="matrix(0.05,0,0,0.05,49.900000000000006,0)" xlink:href="#K"/></g><path d="M30-248c118-7 216 8 213 122C240-48 200 0 122 0H30v-248zM63-27c89 8 146-16 146-99s-60-101-146-95v194" id="L"/><path d="M115-194c53 0 69 39 70 98 0 66-23 100-70 100C84 3 66-7 56-30L54 0H23l1-261h32v101c10-23 28-34 59-34zm-8 174c40 0 45-34 45-75 0-40-5-75-45-74-42 0-51 32-51 76 0 43 10 73 51 73" id="M"/><g id="g"><use transform="matrix(0.05,0,0,0.05,0,0)" xlink:href="#L"/><use transform="matrix(0.05,0,0,0.05,12.950000000000001,0)" xlink:href="#t"/><use transform="matrix(0.05,0,0,0.05,22.950000000000003,0)" xlink:href="#z"/><use transform="matrix(0.05,0,0,0.05,27.950000000000003,0)" xlink:href="#t"/><use transform="matrix(0.05,0,0,0.05,37.95,0)" xlink:href="#M"/><use transform="matrix(0.05,0,0,0.05,47.95,0)" xlink:href="#t"/><use transform="matrix(0.05,0,0,0.05,57.95,0)" xlink:href="#D"/><use transform="matrix(0.05,0,0,0.05,66.95,0)" xlink:href="#x"/></g><path d="M30 0v-248h187v28H63v79h144v27H63v87h162V0H30" id="N"/><path d="M24-231v-30h32v30H24zM24 0v-190h32V0H24" id="O"/><path d="M96-169c-40 0-48 33-48 73s9 75 48 75c24 0 41-14 43-38l32 2c-6 37-31 61-74 61-59 0-76-41-82-99-10-93 101-131 147-64 4 7 5 14 7 22l-32 3c-4-21-16-35-41-35" id="P"/><g id="h"><use transform="matrix(0.05,0,0,0.05,0,0)" xlink:href="#N"/><use transform="matrix(0.05,0,0,0.05,12,0)" xlink:href="#H"/><use transform="matrix(0.05,0,0,0.05,15.949999999999998,0)" xlink:href="#t"/><use transform="matrix(0.05,0,0,0.05,25.950000000000003,0)" xlink:href="#D"/><use transform="matrix(0.05,0,0,0.05,34.95,0)" xlink:href="#z"/><use transform="matrix(0.05,0,0,0.05,39.95,0)" xlink:href="#O"/><use transform="matrix(0.05,0,0,0.05,43.900000000000006,0)" xlink:href="#P"/><use transform="matrix(0.05,0,0,0.05,52.900000000000006,0)" xlink:href="#D"/><use transform="matrix(0.05,0,0,0.05,61.900000000000006,0)" xlink:href="#x"/><use transform="matrix(0.05,0,0,0.05,71.9,0)" xlink:href="#t"/><use transform="matrix(0.05,0,0,0.05,81.9,0)" xlink:href="#F"/><use transform="matrix(0.05,0,0,0.05,87.85000000000001,0)" xlink:href="#P"/><use transform="matrix(0.05,0,0,0.05,96.85000000000001,0)" xlink:href="#E"/></g><path d="M190 0L58-211 59 0H30v-248h39L202-35l-2-213h31V0h-41" id="Q"/><g id="i"><use transform="matrix(0.05,0,0,0.05,0,0)" xlink:href="#Q"/><use transform="matrix(0.05,0,0,0.05,12.950000000000001,0)" xlink:href="#x"/><use transform="matrix(0.05,0,0,0.05,22.950000000000003,0)" xlink:href="#F"/><use transform="matrix(0.05,0,0,0.05,28.900000000000002,0)" xlink:href="#K"/></g><path d="M30-248c87 1 191-15 191 75 0 78-77 80-158 76V0H30v-248zm33 125c57 0 124 11 124-50 0-59-68-47-124-48v98" id="R"/><g id="j"><use transform="matrix(0.05,0,0,0.05,0,0)" xlink:href="#R"/><use transform="matrix(0.05,0,0,0.05,12,0)" xlink:href="#F"/><use transform="matrix(0.05,0,0,0.05,17.95,0)" xlink:href="#B"/><use transform="matrix(0.05,0,0,0.05,27.950000000000003,0)" xlink:href="#P"/><use transform="matrix(0.05,0,0,0.05,36.95,0)" xlink:href="#x"/><use transform="matrix(0.05,0,0,0.05,46.95,0)" xlink:href="#D"/><use transform="matrix(0.05,0,0,0.05,55.95,0)" xlink:href="#D"/></g><g id="k"><use transform="matrix(0.05,0,0,0.05,0,0)" xlink:href="#N"/><use transform="matrix(0.05,0,0,0.05,12,0)" xlink:href="#H"/><use transform="matrix(0.05,0,0,0.05,15.949999999999998,0)" xlink:href="#t"/><use transform="matrix(0.05,0,0,0.05,25.950000000000003,0)" xlink:href="#D"/><use transform="matrix(0.05,0,0,0.05,34.95,0)" xlink:href="#z"/><use transform="matrix(0.05,0,0,0.05,39.95,0)" xlink:href="#t"/><use transform="matrix(0.05,0,0,0.05,49.95,0)" xlink:href="#H"/><use transform="matrix(0.05,0,0,0.05,53.900000000000006,0)" xlink:href="#x"/><use transform="matrix(0.05,0,0,0.05,63.900000000000006,0)" xlink:href="#F"/><use transform="matrix(0.05,0,0,0.05,69.85000000000001,0)" xlink:href="#z"/></g><path d="M115-194c55 1 70 41 70 98S169 2 115 4C84 4 66-9 55-30l1 105H24l-1-265h31l2 30c10-21 28-34 59-34zm-8 174c40 0 45-34 45-75s-6-73-45-74c-42 0-51 32-51 76 0 43 10 73 51 73" id="S"/><g id="l"><use transform="matrix(0.05,0,0,0.05,0,0)" xlink:href="#s"/><use transform="matrix(0.05,0,0,0.05,12,0)" xlink:href="#J"/><use transform="matrix(0.05,0,0,0.05,22,0)" xlink:href="#O"/><use transform="matrix(0.05,0,0,0.05,25.950000000000003,0)" xlink:href="#C"/><use transform="matrix(0.05,0,0,0.05,35.95,0)" xlink:href="#E"/><use transform="matrix(0.05,0,0,0.05,45.95,0)" xlink:href="#z"/><use transform="matrix(0.05,0,0,0.05,50.95,0)" xlink:href="#D"/><use transform="matrix(0.05,0,0,0.05,59.95,0)" xlink:href="#P"/><use transform="matrix(0.05,0,0,0.05,68.95,0)" xlink:href="#B"/><use transform="matrix(0.05,0,0,0.05,78.95,0)" xlink:href="#S"/><use transform="matrix(0.05,0,0,0.05,88.95,0)" xlink:href="#x"/></g><path d="M185-189c-5-48-123-54-124 2 14 75 158 14 163 119 3 78-121 87-175 55-17-10-28-26-33-46l33-7c5 56 141 63 141-1 0-78-155-14-162-118-5-82 145-84 179-34 5 7 8 16 11 25" id="T"/><g id="m"><use transform="matrix(0.05,0,0,0.05,0,0)" xlink:href="#T"/><use transform="matrix(0.05,0,0,0.05,12,0)" xlink:href="#H"/><use transform="matrix(0.05,0,0,0.05,15.949999999999998,0)" xlink:href="#t"/><use transform="matrix(0.05,0,0,0.05,25.950000000000003,0)" xlink:href="#P"/><use transform="matrix(0.05,0,0,0.05,34.95,0)" xlink:href="#v"/></g><g id="n"><use transform="matrix(0.05,0,0,0.05,0,0)" xlink:href="#s"/><use transform="matrix(0.05,0,0,0.05,12,0)" xlink:href="#J"/><use transform="matrix(0.05,0,0,0.05,22,0)" xlink:href="#O"/><use transform="matrix(0.05,0,0,0.05,25.950000000000003,0)" xlink:href="#C"/><use transform="matrix(0.05,0,0,0.05,35.95,0)" xlink:href="#E"/><use transform="matrix(0.05,0,0,0.05,45.95,0)" xlink:href="#z"/><use transform="matrix(0.05,0,0,0.05,50.95,0)" xlink:href="#D"/><use transform="matrix(0.05,0,0,0.05,59.95,0)" xlink:href="#P"/><use transform="matrix(0.05,0,0,0.05,68.95,0)" xlink:href="#B"/><use transform="matrix(0.05,0,0,0.05,78.95,0)" xlink:href="#S"/><use transform="matrix(0.05,0,0,0.05,88.95,0)" xlink:href="#x"/></g><path d="M87 75C49 33 22-17 22-94c0-76 28-126 65-167h31c-38 41-64 92-64 168S80 34 118 75H87" id="U"/><path d="M68-38c1 34 0 65-14 84H32c9-13 17-26 17-46H33v-38h35" id="V"/><g id="o"><use transform="matrix(0.05,0,0,0.05,0,0)" xlink:href="#U"/><use transform="matrix(0.05,0,0,0.05,5.95,0)" xlink:href="#x"/><use transform="matrix(0.05,0,0,0.05,15.949999999999998,0)" xlink:href="#J"/><use transform="matrix(0.05,0,0,0.05,25.950000000000003,0)" xlink:href="#F"/><use transform="matrix(0.05,0,0,0.05,31.899999999999995,0)" xlink:href="#O"/><use transform="matrix(0.05,0,0,0.05,35.85,0)" xlink:href="#P"/><use transform="matrix(0.05,0,0,0.05,44.85,0)" xlink:href="#E"/><use transform="matrix(0.05,0,0,0.05,54.85,0)" xlink:href="#x"/><use transform="matrix(0.05,0,0,0.05,64.85,0)" xlink:href="#K"/><use transform="matrix(0.05,0,0,0.05,74.85,0)" xlink:href="#V"/></g><path d="M108 0H70L1-190h34L89-25l56-165h34" id="W"/><g id="p"><use transform="matrix(0.05,0,0,0.05,0,0)" xlink:href="#O"/><use transform="matrix(0.05,0,0,0.05,3.95,0)" xlink:href="#J"/><use transform="matrix(0.05,0,0,0.05,13.949999999999998,0)" xlink:href="#z"/><use transform="matrix(0.05,0,0,0.05,18.95,0)" xlink:href="#x"/><use transform="matrix(0.05,0,0,0.05,28.950000000000003,0)" xlink:href="#F"/><use transform="matrix(0.05,0,0,0.05,34.9,0)" xlink:href="#t"/><use transform="matrix(0.05,0,0,0.05,44.9,0)" xlink:href="#P"/><use transform="matrix(0.05,0,0,0.05,53.900000000000006,0)" xlink:href="#z"/><use transform="matrix(0.05,0,0,0.05,58.900000000000006,0)" xlink:href="#O"/><use transform="matrix(0.05,0,0,0.05,62.85,0)" xlink:href="#W"/><use transform="matrix(0.05,0,0,0.05,71.85,0)" xlink:href="#x"/></g><path d="M33-261c38 41 65 92 65 168S71 34 33 75H2C39 34 66-17 66-93S39-220 2-261h31" id="X"/><g id="q"><use transform="matrix(0.05,0,0,0.05,0,0)" xlink:href="#t"/><use transform="matrix(0.05,0,0,0.05,10,0)" xlink:href="#H"/><use transform="matrix(0.05,0,0,0.05,13.949999999999998,0)" xlink:href="#x"/><use transform="matrix(0.05,0,0,0.05,23.95,0)" xlink:href="#F"/><use transform="matrix(0.05,0,0,0.05,29.899999999999995,0)" xlink:href="#z"/><use transform="matrix(0.05,0,0,0.05,34.9,0)" xlink:href="#D"/><use transform="matrix(0.05,0,0,0.05,43.9,0)" xlink:href="#X"/></g><g id="r"><use transform="matrix(0.05,0,0,0.05,0,0)" xlink:href="#s"/><use transform="matrix(0.05,0,0,0.05,12,0)" xlink:href="#O"/><use transform="matrix(0.05,0,0,0.05,15.949999999999998,0)" xlink:href="#M"/><use transform="matrix(0.05,0,0,0.05,25.950000000000003,0)" xlink:href="#t"/><use transform="matrix(0.05,0,0,0.05,35.95,0)" xlink:href="#J"/><use transform="matrix(0.05,0,0,0.05,45.95,0)" xlink:href="#t"/></g></defs></g></svg>