<svg xmlns="http://www.w3.org/2000/svg" xmlns:xlink="http://www.w3.org/1999/xlink" xmlns:lucid="lucid" width="841" height="500"><g transform="translate(21 -40)" lucid:page-tab-id=".KS-j9ngtOrS"><path d="M0 0h1360v1760H0z" fill="#fff"/><path d="M540 60h220v247.06H540z" stroke="#000" stroke-width="2" fill="#fff"/><use xlink:href="#a" transform="matrix(1,0,0,1,545,65) translate(0 14.4)"/><use xlink:href="#b" transform="matrix(1,0,0,1,545,65) translate(39 14.4)"/><use xlink:href="#c" transform="matrix(1,0,0,1,545,65) translate(114.9 14.4)"/><path d="M560 92.94h180v32.94H560z" stroke="#000" stroke-width="2" fill="#fff"/><use xlink:href="#d" transform="matrix(1,0,0,1,565,97.94117647058823) translate(14.625 15.1)"/><path d="M560 76.47h220v247.06H560z" stroke="#000" stroke-width="2" fill="#fff"/><use xlink:href="#a" transform="matrix(1,0,0,1,565,81.47058823529412) translate(0 14.4)"/><use xlink:href="#b" transform="matrix(1,0,0,1,565,81.47058823529412) translate(39 14.4)"/><use xlink:href="#c" transform="matrix(1,0,0,1,565,81.47058823529412) translate(114.9 14.4)"/><path d="M580 109.4h180v32.95H580z" stroke="#000" stroke-width="2" fill="#fff"/><use xlink:href="#d" transform="matrix(1,0,0,1,585,114.41176470588235) translate(14.625 15.1)"/><path d="M580 92.94h220V340H580z" stroke="#000" stroke-width="2" fill="#fff"/><use xlink:href="#a" transform="matrix(1,0,0,1,585,97.94117647058823) translate(0 14.4)"/><use xlink:href="#b" transform="matrix(1,0,0,1,585,97.94117647058823) translate(39 14.4)"/><use xlink:href="#c" transform="matrix(1,0,0,1,585,97.94117647058823) translate(114.9 14.4)"/><path d="M600 125.88h180v32.94H600z" stroke="#000" stroke-width="2" fill="#fff"/><use xlink:href="#e" transform="matrix(1,0,0,1,605,130.88235294117646) translate(9.099999999999994 15.1)"/><path d="M160 120h238v300H160z" stroke="#000" stroke-width="2" fill="#fff"/><use xlink:href="#a" transform="matrix(1,0,0,1,165,125) translate(0 14.4)"/><use xlink:href="#f" transform="matrix(1,0,0,1,165,125) translate(39 14.4)"/><use xlink:href="#c" transform="matrix(1,0,0,1,165,125) translate(97.85000000000001 14.4)"/><path d="M181.64 160h194.72v40H181.64z" stroke="#000" stroke-width="2" fill="#fff"/><use xlink:href="#g" transform="matrix(1,0,0,1,186.63636363636363,165) translate(14.125 18.6)"/><path d="M180 140h240v300H180z" stroke="#000" stroke-width="2" fill="#fff"/><use xlink:href="#a" transform="matrix(1,0,0,1,185,145) translate(0 14.4)"/><use xlink:href="#f" transform="matrix(1,0,0,1,185,145) translate(39 14.4)"/><use xlink:href="#c" transform="matrix(1,0,0,1,185,145) translate(97.85000000000001 14.4)"/><path d="M201.82 180h196.36v40H201.82z" stroke="#000" stroke-width="2" fill="#fff"/><use xlink:href="#g" transform="matrix(1,0,0,1,206.81818181818184,185) translate(15.125 18.6)"/><path d="M200 160h238v300H200z" stroke="#000" stroke-width="2" fill="#fff"/><use xlink:href="#a" transform="matrix(1,0,0,1,205,165) translate(0 14.4)"/><use xlink:href="#f" transform="matrix(1,0,0,1,205,165) translate(39 14.4)"/><use xlink:href="#c" transform="matrix(1,0,0,1,205,165) translate(97.85000000000001 14.4)"/><path d="M221.64 200h194.72v40H221.64z" stroke="#000" stroke-width="2" fill="#fff"/><use xlink:href="#g" transform="matrix(1,0,0,1,226.63636363636363,205) translate(14.125 18.6)"/><path d="M220 180h240v300H220z" stroke="#000" stroke-width="2" fill="#fff"/><use xlink:href="#a" transform="matrix(1,0,0,1,225,185) translate(0 14.4)"/><use xlink:href="#f" transform="matrix(1,0,0,1,225,185) translate(39 14.4)"/><use xlink:href="#c" transform="matrix(1,0,0,1,225,185) translate(97.85000000000001 14.4)"/><path d="M241.82 220h196.36v40H241.82z" stroke="#000" stroke-width="2" fill="#fff"/><use xlink:href="#g" transform="matrix(1,0,0,1,246.81818181818184,225) translate(15.125 18.6)"/><path d="M240 200h238v300H240z" stroke="#000" stroke-width="2" fill="#fff"/><use xlink:href="#a" transform="matrix(1,0,0,1,245,205) translate(0 14.4)"/><use xlink:href="#f" transform="matrix(1,0,0,1,245,205) translate(39 14.4)"/><use xlink:href="#c" transform="matrix(1,0,0,1,245,205) translate(97.85000000000001 14.4)"/><path d="M261.64 240h194.72v40H261.64z" stroke="#000" stroke-width="2" fill="#fff"/><use xlink:href="#g" transform="matrix(1,0,0,1,266.6363636363636,245) translate(14.125 18.6)"/><path d="M260 220h240v300H260z" stroke="#000" stroke-width="2" fill="#fff"/><use xlink:href="#a" transform="matrix(1,0,0,1,265,225) translate(0 14.4)"/><use xlink:href="#f" transform="matrix(1,0,0,1,265,225) translate(39 14.4)"/><use xlink:href="#c" transform="matrix(1,0,0,1,265,225) translate(97.85000000000001 14.4)"/><path d="M281.82 260h196.36v40H281.82z" stroke="#000" stroke-width="2" fill="#fff"/><use xlink:href="#h" transform="matrix(1,0,0,1,286.81818181818187,265) translate(27.57499999999999 18.6)"/><path d="M646.7 296.9l-5.42 7.76-5.33 6.98-5.22 6.28-5.1 5.62-4.96 5.04-4.82 4.5-4.7 4.03-4.57 3.6-4.45 3.23-4.35 2.87-4.25 2.56-4.17 2.28-4.1 2-4.02 1.8-3.97 1.55-3.93 1.35-3.9 1.16-3.88 1-3.85.8-8.4 1.43-9.9 1.32-9.1.82-8.46.4-7.95.06-7.55-.27-7.2-.56-6.97-.83-6.78-1.1-6.66-1.38-6.6-1.67-6.63-1.95-6.68-2.3-6.86-2.66-7.13-3.12-7.52-3.68-8.1-4.4-9.05-5.4-10.53-6.92-13.36-9.6-21.5-16.93 2.48-3.14 21.43 16.87 13.22 9.5 10.37 6.82 8.9 5.32 7.97 4.32 7.37 3.6 6.98 3.07 6.7 2.6 6.55 2.24 6.45 1.9 6.45 1.62 6.5 1.33 6.6 1.07 6.8.82 7.05.55 7.37.26 7.78-.05 8.3-.4 8.93-.8 9.74-1.3 8.26-1.4 3.7-.8 3.7-.93 3.75-1.1 3.78-1.3 3.82-1.5 3.87-1.72 3.95-1.95 4.02-2.2 4.1-2.46 4.22-2.78 4.3-3.12 4.45-3.5 4.58-3.92 4.7-4.4 4.84-4.9 5-5.5 5.1-6.15 5.23-6.85 5.33-7.62.33-.52h4.76zm43.78-115.37l-1.33 8.8-1.95 10.03-2.6 10.9-3.25 11.5-3.88 11.82-4.43 11.8-4.86 11.46-5.18 10.9-2 3.82h-4.52l2.95-5.6 5.1-10.76 4.8-11.3 4.36-11.65 3.82-11.65 3.2-11.35 2.57-10.73 1.9-9.88 1.32-8.7zM378.76 302.57l-2.35-1.85.57-.72h3.82zM693.18 180.83l-9.25-.64 5.62-13.92z"/><path d="M695.78 183.02L681.04 182 690 159.8zm-8.97-4.64l3.77.27-1.47-5.9z"/><g><use xlink:href="#i" transform="matrix(1,0,0,1,635.2841756858992,272.556056576251) translate(0 14.4)"/></g><path d="M280 380h180v40H280z" stroke="#000" stroke-width="2" fill="#fff"/><g><use xlink:href="#j" transform="matrix(1,0,0,1,285,385) translate(35.025 18.6)"/></g><path d="M610.02 400.12l-9.73 1.67-11.4 1.46-13.84 1.2-18.3.8-31.6.03-42.73-.87.08-4 42.7.86 31.47-.03 18.13-.8 6.7-.58h29.57zM747.9 159.87l-.2 8.92-.7 11.1-1.43 13.5-2.35 15.87-3.4 17.75-4.38 18.68-5.16 18.5-5.62 17.3-5.78 15.57-5.7 13.6-5.5 11.66-5.18 9.94-4.87 8.43-4.53 7.15-4.23 6.1-3.94 5.18-3.67 4.45-3.45 3.83-3.22 3.32-3.05 2.86-2.9 2.5-2.73 2.17-.06.04h-6.98l2.14-1.44 2.48-1.8 2.6-2.07 2.77-2.4 2.93-2.74 3.1-3.2 3.35-3.7 3.57-4.3 3.83-5.07 4.13-5.96 4.45-7 4.8-8.3 5.1-9.8 5.42-11.5 5.64-13.45 5.72-15.4 5.57-17.17 5.1-18.32 4.36-18.5 3.37-17.6 2.33-15.7 1.4-13.34.7-10.94.2-8.84z" fill="#c92d39"/><path d="M747.9 159.9l-4-.15.04-.93h4zM481.64 407.05l-14.17-4.92 14.36-4.35z" fill="#c92d39"/><path d="M483.6 409.84L461 402l22.88-6.93zm-9.66-7.58l5.76 2 .07-3.77z" fill="#c92d39"/><g><use xlink:href="#k" transform="matrix(1,0,0,1,576.5110158043232,378.2898574615818) translate(0 14.4)"/><use xlink:href="#l" transform="matrix(1,0,0,1,576.5110158043232,378.2898574615818) translate(28.95 14.4)"/><use xlink:href="#m" transform="matrix(1,0,0,1,576.5110158043232,378.2898574615818) translate(38.6 14.4)"/></g><path d="M53.42 314.58l-12.02 2.7-.88-3.92 12.9-2.88zM280.82 282l-24.98.2-32.55 1.2-22.42 1.8-21 2.58-25.94 4.33-26.67 5.97v-4.1l25.9-5.78 26.13-4.38 21.18-2.6 22.58-1.82 32.7-1.2 25.04-.2zM41.25 320l-14.93-1.4 12.9-7.65z"/><path d="M43.8 322.25L20 320l20.58-12.17zm-11.16-5.07l6.06.57-.82-3.68zM281.82 282h-1l-.02-4h1.02z"/><g><use xlink:href="#n" transform="matrix(1,0,0,1,53.42179594306093,282.67651194933745) translate(0 14.4)"/><use xlink:href="#o" transform="matrix(1,0,0,1,53.42179594306093,282.67651194933745) translate(0 36)"/></g><defs><path d="M194 0L95-120 63-95V0H30v-248h33v124l119-124h40L117-140 236 0h-42" id="p"/><path d="M134-131c28 9 52 24 51 62-1 50-34 73-85 73S17-19 16-69c0-36 21-54 49-61-75-25-45-126 34-121 46 3 78 18 79 63 0 33-17 51-44 57zm-34-11c31 1 46-15 46-44 0-28-17-43-47-42-29 0-46 13-45 42 1 28 16 44 46 44zm1 122c35 0 51-18 51-52 0-30-18-46-53-46-33 0-51 17-51 47 0 34 19 51 53 51" id="q"/><path d="M185-189c-5-48-123-54-124 2 14 75 158 14 163 119 3 78-121 87-175 55-17-10-28-26-33-46l33-7c5 56 141 63 141-1 0-78-155-14-162-118-5-82 145-84 179-34 5 7 8 16 11 25" id="r"/><g id="a"><use transform="matrix(0.05,0,0,0.05,0,0)" xlink:href="#p"/><use transform="matrix(0.05,0,0,0.05,12,0)" xlink:href="#q"/><use transform="matrix(0.05,0,0,0.05,22,0)" xlink:href="#r"/></g><path d="M210-169c-67 3-38 105-44 169h-31v-121c0-29-5-50-35-48C34-165 62-65 56 0H25l-1-190h30c1 10-1 24 2 32 10-44 99-50 107 0 11-21 27-35 58-36 85-2 47 119 55 194h-31v-121c0-29-5-49-35-48" id="s"/><path d="M141-36C126-15 110 5 73 4 37 3 15-17 15-53c-1-64 63-63 125-63 3-35-9-54-41-54-24 1-41 7-42 31l-33-3c5-37 33-52 76-52 45 0 72 20 72 64v82c-1 20 7 32 28 27v20c-31 9-61-2-59-35zM48-53c0 20 12 33 32 33 41-3 63-29 60-74-43 2-92-5-92 41" id="t"/><path d="M117-194c89-4 53 116 60 194h-32v-121c0-31-8-49-39-48C34-167 62-67 57 0H25l-1-190h30c1 10-1 24 2 32 11-22 29-35 61-36" id="u"/><path d="M177-190C167-65 218 103 67 71c-23-6-38-20-44-43l32-5c15 47 100 32 89-28v-30C133-14 115 1 83 1 29 1 15-40 15-95c0-56 16-97 71-98 29-1 48 16 59 35 1-10 0-23 2-32h30zM94-22c36 0 50-32 50-73 0-42-14-75-50-75-39 0-46 34-46 75s6 73 46 73" id="v"/><path d="M100-194c63 0 86 42 84 106H49c0 40 14 67 53 68 26 1 43-12 49-29l28 8c-11 28-37 45-77 45C44 4 14-33 15-96c1-61 26-98 85-98zm52 81c6-60-76-77-97-28-3 7-6 17-6 28h103" id="w"/><path d="M114-163C36-179 61-72 57 0H25l-1-190h30c1 12-1 29 2 39 6-27 23-49 58-41v29" id="x"/><g id="b"><use transform="matrix(0.05,0,0,0.05,0,0)" xlink:href="#s"/><use transform="matrix(0.05,0,0,0.05,14.950000000000001,0)" xlink:href="#t"/><use transform="matrix(0.05,0,0,0.05,24.950000000000003,0)" xlink:href="#u"/><use transform="matrix(0.05,0,0,0.05,34.95,0)" xlink:href="#t"/><use transform="matrix(0.05,0,0,0.05,44.95,0)" xlink:href="#v"/><use transform="matrix(0.05,0,0,0.05,54.95,0)" xlink:href="#w"/><use transform="matrix(0.05,0,0,0.05,64.95,0)" xlink:href="#x"/></g><path d="M100-194c62-1 85 37 85 99 1 63-27 99-86 99S16-35 15-95c0-66 28-99 85-99zM99-20c44 1 53-31 53-75 0-43-8-75-51-75s-53 32-53 75 10 74 51 75" id="y"/><path d="M85-194c31 0 48 13 60 33l-1-100h32l1 261h-30c-2-10 0-23-3-31C134-8 116 4 85 4 32 4 16-35 15-94c0-66 23-100 70-100zm9 24c-40 0-46 34-46 75 0 40 6 74 45 74 42 0 51-32 51-76 0-42-9-74-50-73" id="z"/><g id="c"><use transform="matrix(0.05,0,0,0.05,0,0)" xlink:href="#u"/><use transform="matrix(0.05,0,0,0.05,10,0)" xlink:href="#y"/><use transform="matrix(0.05,0,0,0.05,20,0)" xlink:href="#z"/><use transform="matrix(0.05,0,0,0.05,30,0)" xlink:href="#w"/></g><path d="M59-47c-2 24 18 29 38 22v24C64 9 27 4 27-40v-127H5v-23h24l9-43h21v43h35v23H59v120" id="A"/><path d="M106-169C34-169 62-67 57 0H25v-261h32l-1 103c12-21 28-36 61-36 89 0 53 116 60 194h-32v-121c2-32-8-49-39-48" id="B"/><path d="M135-143c-3-34-86-38-87 0 15 53 115 12 119 90S17 21 10-45l28-5c4 36 97 45 98 0-10-56-113-15-118-90-4-57 82-63 122-42 12 7 21 19 24 35" id="C"/><path d="M16-82v-28h88v28H16" id="D"/><path d="M24-231v-30h32v30H24zM24 0v-190h32V0H24" id="E"/><g id="d"><use transform="matrix(0.05,0,0,0.05,0,0)" xlink:href="#A"/><use transform="matrix(0.05,0,0,0.05,5,0)" xlink:href="#B"/><use transform="matrix(0.05,0,0,0.05,15,0)" xlink:href="#x"/><use transform="matrix(0.05,0,0,0.05,20.95,0)" xlink:href="#w"/><use transform="matrix(0.05,0,0,0.05,30.950000000000003,0)" xlink:href="#t"/><use transform="matrix(0.05,0,0,0.05,40.95,0)" xlink:href="#A"/><use transform="matrix(0.05,0,0,0.05,45.95,0)" xlink:href="#C"/><use transform="matrix(0.05,0,0,0.05,54.95,0)" xlink:href="#w"/><use transform="matrix(0.05,0,0,0.05,64.95,0)" xlink:href="#w"/><use transform="matrix(0.05,0,0,0.05,74.95,0)" xlink:href="#x"/><use transform="matrix(0.05,0,0,0.05,80.9,0)" xlink:href="#D"/><use transform="matrix(0.05,0,0,0.05,86.85000000000001,0)" xlink:href="#B"/><use transform="matrix(0.05,0,0,0.05,96.85000000000001,0)" xlink:href="#E"/><use transform="matrix(0.05,0,0,0.05,100.80000000000001,0)" xlink:href="#A"/><use transform="matrix(0.05,0,0,0.05,105.80000000000001,0)" xlink:href="#s"/><use transform="matrix(0.05,0,0,0.05,120.75,0)" xlink:href="#t"/><use transform="matrix(0.05,0,0,0.05,130.75,0)" xlink:href="#u"/></g><path d="M115-194c53 0 69 39 70 98 0 66-23 100-70 100C84 3 66-7 56-30L54 0H23l1-261h32v101c10-23 28-34 59-34zm-8 174c40 0 45-34 45-75 0-40-5-75-45-74-42 0-51 32-51 76 0 43 10 73 51 73" id="F"/><path d="M84 4C-5 8 30-112 23-190h32v120c0 31 7 50 39 49 72-2 45-101 50-169h31l1 190h-30c-1-10 1-25-2-33-11 22-28 36-60 37" id="G"/><path d="M96-169c-40 0-48 33-48 73s9 75 48 75c24 0 41-14 43-38l32 2c-6 37-31 61-74 61-59 0-76-41-82-99-10-93 101-131 147-64 4 7 5 14 7 22l-32 3c-4-21-16-35-41-35" id="H"/><g id="e"><use transform="matrix(0.05,0,0,0.05,0,0)" xlink:href="#A"/><use transform="matrix(0.05,0,0,0.05,5,0)" xlink:href="#B"/><use transform="matrix(0.05,0,0,0.05,15,0)" xlink:href="#x"/><use transform="matrix(0.05,0,0,0.05,20.95,0)" xlink:href="#w"/><use transform="matrix(0.05,0,0,0.05,30.950000000000003,0)" xlink:href="#t"/><use transform="matrix(0.05,0,0,0.05,40.95,0)" xlink:href="#A"/><use transform="matrix(0.05,0,0,0.05,45.95,0)" xlink:href="#C"/><use transform="matrix(0.05,0,0,0.05,54.95,0)" xlink:href="#w"/><use transform="matrix(0.05,0,0,0.05,64.95,0)" xlink:href="#w"/><use transform="matrix(0.05,0,0,0.05,74.95,0)" xlink:href="#x"/><use transform="matrix(0.05,0,0,0.05,80.9,0)" xlink:href="#D"/><use transform="matrix(0.05,0,0,0.05,86.85000000000001,0)" xlink:href="#F"/><use transform="matrix(0.05,0,0,0.05,96.85000000000001,0)" xlink:href="#y"/><use transform="matrix(0.05,0,0,0.05,106.85000000000001,0)" xlink:href="#G"/><use transform="matrix(0.05,0,0,0.05,116.85000000000001,0)" xlink:href="#u"/><use transform="matrix(0.05,0,0,0.05,126.85000000000001,0)" xlink:href="#H"/><use transform="matrix(0.05,0,0,0.05,135.85000000000002,0)" xlink:href="#w"/><use transform="matrix(0.05,0,0,0.05,145.85000000000002,0)" xlink:href="#x"/></g><path d="M206 0h-36l-40-164L89 0H53L-1-190h32L70-26l43-164h34l41 164 42-164h31" id="I"/><path d="M143 0L79-87 56-68V0H24v-261h32v163l83-92h37l-77 82L181 0h-38" id="J"/><g id="f"><use transform="matrix(0.05,0,0,0.05,0,0)" xlink:href="#I"/><use transform="matrix(0.05,0,0,0.05,12.950000000000001,0)" xlink:href="#y"/><use transform="matrix(0.05,0,0,0.05,22.950000000000003,0)" xlink:href="#x"/><use transform="matrix(0.05,0,0,0.05,28.900000000000002,0)" xlink:href="#J"/><use transform="matrix(0.05,0,0,0.05,37.900000000000006,0)" xlink:href="#w"/><use transform="matrix(0.05,0,0,0.05,47.900000000000006,0)" xlink:href="#x"/></g><path d="M108 0H70L1-190h34L89-25l56-165h34" id="K"/><g id="g"><use transform="matrix(0.05,0,0,0.05,0,0)" xlink:href="#A"/><use transform="matrix(0.05,0,0,0.05,5,0)" xlink:href="#B"/><use transform="matrix(0.05,0,0,0.05,15,0)" xlink:href="#x"/><use transform="matrix(0.05,0,0,0.05,20.95,0)" xlink:href="#w"/><use transform="matrix(0.05,0,0,0.05,30.950000000000003,0)" xlink:href="#t"/><use transform="matrix(0.05,0,0,0.05,40.95,0)" xlink:href="#A"/><use transform="matrix(0.05,0,0,0.05,45.95,0)" xlink:href="#C"/><use transform="matrix(0.05,0,0,0.05,54.95,0)" xlink:href="#w"/><use transform="matrix(0.05,0,0,0.05,64.95,0)" xlink:href="#w"/><use transform="matrix(0.05,0,0,0.05,74.95,0)" xlink:href="#x"/><use transform="matrix(0.05,0,0,0.05,80.9,0)" xlink:href="#D"/><use transform="matrix(0.05,0,0,0.05,86.85000000000001,0)" xlink:href="#y"/><use transform="matrix(0.05,0,0,0.05,96.85000000000001,0)" xlink:href="#F"/><use transform="matrix(0.05,0,0,0.05,106.85000000000001,0)" xlink:href="#C"/><use transform="matrix(0.05,0,0,0.05,115.85000000000001,0)" xlink:href="#w"/><use transform="matrix(0.05,0,0,0.05,125.85000000000001,0)" xlink:href="#x"/><use transform="matrix(0.05,0,0,0.05,131.8,0)" xlink:href="#K"/><use transform="matrix(0.05,0,0,0.05,140.8,0)" xlink:href="#w"/><use transform="matrix(0.05,0,0,0.05,150.8,0)" xlink:href="#x"/></g><g id="h"><use transform="matrix(0.05,0,0,0.05,0,0)" xlink:href="#A"/><use transform="matrix(0.05,0,0,0.05,5,0)" xlink:href="#B"/><use transform="matrix(0.05,0,0,0.05,15,0)" xlink:href="#x"/><use transform="matrix(0.05,0,0,0.05,20.95,0)" xlink:href="#w"/><use transform="matrix(0.05,0,0,0.05,30.950000000000003,0)" xlink:href="#t"/><use transform="matrix(0.05,0,0,0.05,40.95,0)" xlink:href="#A"/><use transform="matrix(0.05,0,0,0.05,45.95,0)" xlink:href="#C"/><use transform="matrix(0.05,0,0,0.05,54.95,0)" xlink:href="#w"/><use transform="matrix(0.05,0,0,0.05,64.95,0)" xlink:href="#w"/><use transform="matrix(0.05,0,0,0.05,74.95,0)" xlink:href="#x"/><use transform="matrix(0.05,0,0,0.05,80.9,0)" xlink:href="#D"/><use transform="matrix(0.05,0,0,0.05,86.85000000000001,0)" xlink:href="#t"/><use transform="matrix(0.05,0,0,0.05,96.85000000000001,0)" xlink:href="#v"/><use transform="matrix(0.05,0,0,0.05,106.85000000000001,0)" xlink:href="#w"/><use transform="matrix(0.05,0,0,0.05,116.85000000000001,0)" xlink:href="#u"/><use transform="matrix(0.05,0,0,0.05,126.85000000000001,0)" xlink:href="#A"/></g><g id="i"><use transform="matrix(0.05,0,0,0.05,0,0)" xlink:href="#y"/><use transform="matrix(0.05,0,0,0.05,10,0)" xlink:href="#s"/><use transform="matrix(0.05,0,0,0.05,24.950000000000003,0)" xlink:href="#v"/></g><path d="M179-190L93 31C79 59 56 82 12 73V49c39 6 53-20 64-50L1-190h34L92-34l54-156h33" id="L"/><path d="M115-194c55 1 70 41 70 98S169 2 115 4C84 4 66-9 55-30l1 105H24l-1-265h31l2 30c10-21 28-34 59-34zm-8 174c40 0 45-34 45-75s-6-73-45-74c-42 0-51 32-51 76 0 43 10 73 51 73" id="M"/><g id="j"><use transform="matrix(0.05,0,0,0.05,0,0)" xlink:href="#u"/><use transform="matrix(0.05,0,0,0.05,10,0)" xlink:href="#t"/><use transform="matrix(0.05,0,0,0.05,20,0)" xlink:href="#G"/><use transform="matrix(0.05,0,0,0.05,30,0)" xlink:href="#v"/><use transform="matrix(0.05,0,0,0.05,40,0)" xlink:href="#B"/><use transform="matrix(0.05,0,0,0.05,50,0)" xlink:href="#A"/><use transform="matrix(0.05,0,0,0.05,55,0)" xlink:href="#L"/><use transform="matrix(0.05,0,0,0.05,64,0)" xlink:href="#D"/><use transform="matrix(0.05,0,0,0.05,69.95,0)" xlink:href="#M"/><use transform="matrix(0.05,0,0,0.05,79.95,0)" xlink:href="#y"/><use transform="matrix(0.05,0,0,0.05,89.95,0)" xlink:href="#z"/></g><g id="k"><use transform="matrix(0.05,0,0,0.05,0,0)" xlink:href="#z"/><use transform="matrix(0.05,0,0,0.05,10,0)" xlink:href="#E"/><use transform="matrix(0.05,0,0,0.05,13.949999999999998,0)" xlink:href="#w"/></g><path d="M32 76v-337h29V76H32" id="N"/><use transform="matrix(0.05,0,0,0.05,0,0)" xlink:href="#N" id="l"/><path d="M145-31C134-9 116 4 85 4 32 4 16-35 15-94c0-59 17-99 70-100 32-1 48 14 60 33 0-11-1-24 2-32h30l-1 268h-32zM93-21c41 0 51-33 51-76s-8-73-50-73c-40 0-46 35-46 75s5 74 45 74" id="O"/><g id="m"><use transform="matrix(0.05,0,0,0.05,0,0)" xlink:href="#O"/><use transform="matrix(0.05,0,0,0.05,10,0)" xlink:href="#G"/><use transform="matrix(0.05,0,0,0.05,20,0)" xlink:href="#t"/><use transform="matrix(0.05,0,0,0.05,30,0)" xlink:href="#x"/><use transform="matrix(0.05,0,0,0.05,35.95,0)" xlink:href="#x"/><use transform="matrix(0.05,0,0,0.05,41.900000000000006,0)" xlink:href="#t"/><use transform="matrix(0.05,0,0,0.05,51.900000000000006,0)" xlink:href="#u"/><use transform="matrix(0.05,0,0,0.05,61.900000000000006,0)" xlink:href="#A"/><use transform="matrix(0.05,0,0,0.05,66.9,0)" xlink:href="#E"/><use transform="matrix(0.05,0,0,0.05,70.85000000000001,0)" xlink:href="#u"/><use transform="matrix(0.05,0,0,0.05,80.85000000000001,0)" xlink:href="#w"/></g><path d="M24 0v-261h32V0H24" id="P"/><g id="n"><use transform="matrix(0.05,0,0,0.05,0,0)" xlink:href="#A"/><use transform="matrix(0.05,0,0,0.05,5,0)" xlink:href="#w"/><use transform="matrix(0.05,0,0,0.05,15,0)" xlink:href="#P"/><use transform="matrix(0.05,0,0,0.05,18.95,0)" xlink:href="#w"/><use transform="matrix(0.05,0,0,0.05,28.950000000000003,0)" xlink:href="#s"/><use transform="matrix(0.05,0,0,0.05,43.9,0)" xlink:href="#w"/><use transform="matrix(0.05,0,0,0.05,53.900000000000006,0)" xlink:href="#A"/><use transform="matrix(0.05,0,0,0.05,58.900000000000006,0)" xlink:href="#x"/><use transform="matrix(0.05,0,0,0.05,64.85,0)" xlink:href="#L"/></g><g id="o"><use transform="matrix(0.05,0,0,0.05,0,0)" xlink:href="#C"/><use transform="matrix(0.05,0,0,0.05,9,0)" xlink:href="#A"/><use transform="matrix(0.05,0,0,0.05,14,0)" xlink:href="#x"/><use transform="matrix(0.05,0,0,0.05,19.95,0)" xlink:href="#w"/><use transform="matrix(0.05,0,0,0.05,29.950000000000003,0)" xlink:href="#t"/><use transform="matrix(0.05,0,0,0.05,39.95,0)" xlink:href="#s"/></g></defs></g></svg>